%
M48
M72
T01C0.0236
T02C0.0240
T03C0.0276
T04C0.0320
T05C0.0354
T06C0.0400
%
T01
X13620Y4130
X12860Y4550
X3800Y4690
X2620Y4410
X24910Y4410
X26460Y2960
T02
X27535Y2885
X27535Y4885
T03
X31760Y3460
X31760Y2460
X28060Y960
X27060Y960
X27060Y6860
X28060Y6860
T04
X25360Y6910
X24360Y6910
X23360Y6910
X22360Y6910
X21360Y6910
X20360Y6910
X19360Y6910
X18360Y6910
X17360Y6910
X16360Y6910
X15360Y6910
X14360Y6910
X13360Y6910
X12360Y6910
X11360Y6910
X10360Y6910
X9360Y6910
X8360Y6910
X7360Y6910
X6360Y6910
X2885Y5890
X2885Y1890
X6360Y910
X7360Y910
X8360Y910
X9360Y910
X10360Y910
X11360Y910
X12360Y910
X13360Y910
X14360Y910
X15360Y910
X16360Y910
X17360Y910
X18360Y910
X19360Y910
X20360Y910
X21360Y910
X22360Y910
X23360Y910
X24360Y910
X25360Y910
X29260Y2335
X29260Y3335
X29260Y4435
X29260Y5435
X33910Y1960
X33910Y960
T05
X32160Y960
X29160Y960
T06
X2360Y1010
X3360Y1010
X4360Y1010
X4360Y2360
X6360Y2460
X7360Y2460
X8360Y2460
X9360Y2460
X10360Y2460
X11360Y2460
X12360Y2460
X13360Y2460
X14360Y2460
X15360Y2460
X16360Y2460
X17360Y2460
X18360Y2460
X19360Y2460
X20360Y2460
X21360Y2460
X22360Y2460
X23360Y2460
X24360Y2460
X25360Y2460
X30530Y5020
X33090Y5020
X33090Y6800
X30530Y6800
X25360Y5410
X24360Y5410
X23360Y5410
X22360Y5410
X21360Y5410
X20360Y5410
X19360Y5410
X18360Y5410
X17360Y5410
X16360Y5410
X15360Y5410
X14360Y5410
X13360Y5410
X12360Y5410
X11360Y5410
X10360Y5410
X9360Y5410
X8360Y5410
X7360Y5410
X6360Y5410
X4410Y5410
X1760Y4910
X760Y4910
X760Y3910
X1760Y3910
X1760Y2910
X760Y2910
X2360Y6810
X3360Y6810
X4360Y6810
M30
