G75*
G70*
%OFA0B0*%
%FSLAX24Y24*%
%IPPOS*%
%LPD*%
%AMOC8*
5,1,8,0,0,1.08239X$1,22.5*
%
%ADD10C,0.0560*%
%ADD11OC8,0.0560*%
%ADD12C,0.0740*%
%ADD13C,0.0650*%
%ADD14C,0.0640*%
%ADD15R,0.0640X0.0640*%
%ADD16OC8,0.0640*%
%ADD17R,0.0650X0.0650*%
%ADD18C,0.0480*%
%ADD19C,0.0120*%
%ADD20C,0.0160*%
%ADD21C,0.0436*%
%ADD22C,0.0100*%
D10*
X006360Y000630D02*
X006360Y001190D01*
X007360Y001190D02*
X007360Y000630D01*
X008360Y000630D02*
X008360Y001190D01*
X009360Y001190D02*
X009360Y000630D01*
X010360Y000630D02*
X010360Y001190D01*
X011360Y001190D02*
X011360Y000630D01*
X012360Y000630D02*
X012360Y001190D01*
X013360Y001190D02*
X013360Y000630D01*
X014360Y000630D02*
X014360Y001190D01*
X015360Y001190D02*
X015360Y000630D01*
X016360Y000630D02*
X016360Y001190D01*
X017360Y001190D02*
X017360Y000630D01*
X018360Y000630D02*
X018360Y001190D01*
X019360Y001190D02*
X019360Y000630D01*
X020360Y000630D02*
X020360Y001190D01*
X021360Y001190D02*
X021360Y000630D01*
X022360Y000630D02*
X022360Y001190D01*
X023360Y001190D02*
X023360Y000630D01*
X024360Y000630D02*
X024360Y001190D01*
X025360Y001190D02*
X025360Y000630D01*
X025360Y006630D02*
X025360Y007190D01*
X024360Y007190D02*
X024360Y006630D01*
X023360Y006630D02*
X023360Y007190D01*
X022360Y007190D02*
X022360Y006630D01*
X021360Y006630D02*
X021360Y007190D01*
X020360Y007190D02*
X020360Y006630D01*
X019360Y006630D02*
X019360Y007190D01*
X018360Y007190D02*
X018360Y006630D01*
X017360Y006630D02*
X017360Y007190D01*
X016360Y007190D02*
X016360Y006630D01*
X015360Y006630D02*
X015360Y007190D01*
X014360Y007190D02*
X014360Y006630D01*
X013360Y006630D02*
X013360Y007190D01*
X012360Y007190D02*
X012360Y006630D01*
X011360Y006630D02*
X011360Y007190D01*
X010360Y007190D02*
X010360Y006630D01*
X009360Y006630D02*
X009360Y007190D01*
X008360Y007190D02*
X008360Y006630D01*
X007360Y006630D02*
X007360Y007190D01*
X006360Y007190D02*
X006360Y006630D01*
D11*
X002885Y005890D03*
X002885Y001890D03*
X029260Y002335D03*
X029260Y003335D03*
X029260Y004435D03*
X029260Y005435D03*
D12*
X030530Y005020D03*
X033090Y005020D03*
X033090Y006800D03*
X030530Y006800D03*
X033910Y001960D03*
X033910Y000960D03*
X032160Y000960D03*
X029160Y000960D03*
D13*
X028060Y000960D03*
X027060Y000960D03*
X031760Y002460D03*
X028060Y006860D03*
X027060Y006860D03*
D14*
X025360Y005730D02*
X025360Y005090D01*
X024360Y005090D02*
X024360Y005730D01*
X023360Y005730D02*
X023360Y005090D01*
X022360Y005090D02*
X022360Y005730D01*
X021360Y005730D02*
X021360Y005090D01*
X020360Y005090D02*
X020360Y005730D01*
X019360Y005730D02*
X019360Y005090D01*
X018360Y005090D02*
X018360Y005730D01*
X017360Y005730D02*
X017360Y005090D01*
X016360Y005090D02*
X016360Y005730D01*
X015360Y005730D02*
X015360Y005090D01*
X014360Y005090D02*
X014360Y005730D01*
X013360Y005730D02*
X013360Y005090D01*
X012360Y005090D02*
X012360Y005730D01*
X011360Y005730D02*
X011360Y005090D01*
X010360Y005090D02*
X010360Y005730D01*
X009360Y005730D02*
X009360Y005090D01*
X008360Y005090D02*
X008360Y005730D01*
X007360Y005730D02*
X007360Y005090D01*
X006360Y005090D02*
X006360Y005730D01*
X004360Y006490D02*
X004360Y007130D01*
X003360Y007130D02*
X003360Y006490D01*
X002360Y006490D02*
X002360Y007130D01*
X006360Y002780D02*
X006360Y002140D01*
X007360Y002140D02*
X007360Y002780D01*
X008360Y002780D02*
X008360Y002140D01*
X009360Y002140D02*
X009360Y002780D01*
X010360Y002780D02*
X010360Y002140D01*
X011360Y002140D02*
X011360Y002780D01*
X012360Y002780D02*
X012360Y002140D01*
X013360Y002140D02*
X013360Y002780D01*
X014360Y002780D02*
X014360Y002140D01*
X015360Y002140D02*
X015360Y002780D01*
X016360Y002780D02*
X016360Y002140D01*
X017360Y002140D02*
X017360Y002780D01*
X018360Y002780D02*
X018360Y002140D01*
X019360Y002140D02*
X019360Y002780D01*
X020360Y002780D02*
X020360Y002140D01*
X021360Y002140D02*
X021360Y002780D01*
X022360Y002780D02*
X022360Y002140D01*
X023360Y002140D02*
X023360Y002780D01*
X024360Y002780D02*
X024360Y002140D01*
X025360Y002140D02*
X025360Y002780D01*
X004360Y001330D02*
X004360Y000690D01*
X003360Y000690D02*
X003360Y001330D01*
X002360Y001330D02*
X002360Y000690D01*
D15*
X001760Y002910D03*
D16*
X000760Y002910D03*
X004360Y002360D03*
X001760Y003910D03*
X000760Y003910D03*
X000760Y004910D03*
X001760Y004910D03*
X004410Y005410D03*
D17*
X031760Y003460D03*
D18*
X027775Y002885D02*
X027295Y002885D01*
X027295Y004885D02*
X027775Y004885D01*
D19*
X000340Y002623D02*
X000340Y000490D01*
X001924Y000490D01*
X001915Y000506D01*
X001892Y000578D01*
X001880Y000652D01*
X001880Y000970D01*
X002320Y000970D01*
X002320Y001050D01*
X001880Y001050D01*
X001880Y001368D01*
X001892Y001442D01*
X001915Y001514D01*
X001950Y001582D01*
X001994Y001643D01*
X002048Y001696D01*
X002109Y001741D01*
X002176Y001775D01*
X002248Y001798D01*
X002320Y001810D01*
X002320Y001050D01*
X002400Y001050D01*
X002400Y001810D01*
X002425Y001806D01*
X002425Y002081D01*
X002695Y002350D01*
X003076Y002350D01*
X003345Y002081D01*
X003345Y001830D01*
X003460Y001830D01*
X003644Y001754D01*
X003784Y001613D01*
X003860Y001429D01*
X003860Y000591D01*
X003819Y000490D01*
X003902Y000490D01*
X003860Y000591D01*
X003860Y001429D01*
X003936Y001613D01*
X004077Y001754D01*
X004261Y001830D01*
X004460Y001830D01*
X004644Y001754D01*
X004784Y001613D01*
X004860Y001429D01*
X004860Y001250D01*
X005321Y001250D01*
X005837Y001766D01*
X005904Y001833D01*
X005944Y001850D01*
X005936Y001857D01*
X005860Y002041D01*
X005860Y002879D01*
X005936Y003063D01*
X006077Y003204D01*
X006261Y003280D01*
X006460Y003280D01*
X006644Y003204D01*
X006784Y003063D01*
X006860Y002879D01*
X006860Y002041D01*
X006790Y001870D01*
X006931Y001870D01*
X006860Y002041D01*
X006860Y002879D01*
X006936Y003063D01*
X007077Y003204D01*
X007261Y003280D01*
X007460Y003280D01*
X007644Y003204D01*
X007784Y003063D01*
X007860Y002879D01*
X007860Y002041D01*
X007784Y001857D01*
X007644Y001716D01*
X007586Y001692D01*
X007600Y001658D01*
X007600Y001588D01*
X007621Y001580D01*
X007750Y001451D01*
X007820Y001281D01*
X007820Y000538D01*
X007800Y000490D01*
X007920Y000490D01*
X007900Y000538D01*
X007900Y001281D01*
X007970Y001451D01*
X008100Y001580D01*
X008253Y001643D01*
X008077Y001716D01*
X007936Y001857D01*
X007860Y002041D01*
X007860Y002879D01*
X007936Y003063D01*
X008077Y003204D01*
X008261Y003280D01*
X008460Y003280D01*
X008644Y003204D01*
X008784Y003063D01*
X008860Y002879D01*
X008860Y002041D01*
X008784Y001857D01*
X008644Y001716D01*
X008468Y001643D01*
X008621Y001580D01*
X008750Y001451D01*
X008820Y001281D01*
X008820Y000538D01*
X008800Y000490D01*
X008920Y000490D01*
X008900Y000538D01*
X008900Y001281D01*
X008970Y001451D01*
X009100Y001580D01*
X009253Y001643D01*
X009077Y001716D01*
X008936Y001857D01*
X008860Y002041D01*
X008860Y002879D01*
X008936Y003063D01*
X009077Y003204D01*
X009261Y003280D01*
X009460Y003280D01*
X009644Y003204D01*
X009784Y003063D01*
X009860Y002879D01*
X009860Y002041D01*
X009784Y001857D01*
X009644Y001716D01*
X009468Y001643D01*
X009621Y001580D01*
X009750Y001451D01*
X009820Y001281D01*
X009820Y000538D01*
X009800Y000490D01*
X009920Y000490D01*
X009900Y000538D01*
X009900Y001281D01*
X009970Y001451D01*
X010100Y001580D01*
X010253Y001643D01*
X010077Y001716D01*
X009936Y001857D01*
X009860Y002041D01*
X009860Y002879D01*
X009936Y003063D01*
X010077Y003204D01*
X010261Y003280D01*
X010460Y003280D01*
X010644Y003204D01*
X010784Y003063D01*
X010860Y002879D01*
X010860Y002041D01*
X010784Y001857D01*
X010644Y001716D01*
X010468Y001643D01*
X010621Y001580D01*
X010750Y001451D01*
X010820Y001281D01*
X010820Y000538D01*
X010800Y000490D01*
X010920Y000490D01*
X010900Y000538D01*
X010900Y001281D01*
X010970Y001451D01*
X011100Y001580D01*
X011253Y001643D01*
X011077Y001716D01*
X010936Y001857D01*
X010860Y002041D01*
X010860Y002879D01*
X010936Y003063D01*
X011077Y003204D01*
X011261Y003280D01*
X011460Y003280D01*
X011644Y003204D01*
X011784Y003063D01*
X011860Y002879D01*
X011860Y002041D01*
X011784Y001857D01*
X011644Y001716D01*
X011468Y001643D01*
X011621Y001580D01*
X011750Y001451D01*
X011820Y001281D01*
X011820Y000538D01*
X011800Y000490D01*
X011920Y000490D01*
X011900Y000538D01*
X011900Y001281D01*
X011970Y001451D01*
X012100Y001580D01*
X012253Y001643D01*
X012077Y001716D01*
X011936Y001857D01*
X011860Y002041D01*
X011860Y002879D01*
X011936Y003063D01*
X012077Y003204D01*
X012261Y003280D01*
X012460Y003280D01*
X012644Y003204D01*
X012784Y003063D01*
X012860Y002879D01*
X012860Y002041D01*
X012784Y001857D01*
X012644Y001716D01*
X012468Y001643D01*
X012621Y001580D01*
X012750Y001451D01*
X012820Y001281D01*
X012820Y000538D01*
X012800Y000490D01*
X012920Y000490D01*
X012900Y000538D01*
X012900Y001281D01*
X012970Y001451D01*
X013100Y001580D01*
X013253Y001643D01*
X013077Y001716D01*
X012936Y001857D01*
X012860Y002041D01*
X012860Y002879D01*
X012936Y003063D01*
X013077Y003204D01*
X013261Y003280D01*
X013460Y003280D01*
X013644Y003204D01*
X013784Y003063D01*
X013860Y002879D01*
X013860Y002041D01*
X013784Y001857D01*
X013644Y001716D01*
X013468Y001643D01*
X013621Y001580D01*
X013750Y001451D01*
X013820Y001281D01*
X013820Y000538D01*
X013800Y000490D01*
X013920Y000490D01*
X013900Y000538D01*
X013900Y001281D01*
X013970Y001451D01*
X014100Y001580D01*
X014253Y001643D01*
X014077Y001716D01*
X013936Y001857D01*
X013860Y002041D01*
X013860Y002879D01*
X013936Y003063D01*
X014077Y003204D01*
X014261Y003280D01*
X014460Y003280D01*
X014644Y003204D01*
X014784Y003063D01*
X014860Y002879D01*
X014860Y002041D01*
X014784Y001857D01*
X014644Y001716D01*
X014468Y001643D01*
X014621Y001580D01*
X014750Y001451D01*
X014820Y001281D01*
X014820Y000538D01*
X014800Y000490D01*
X014920Y000490D01*
X014900Y000538D01*
X014900Y001281D01*
X014970Y001451D01*
X015100Y001580D01*
X015110Y001584D01*
X015100Y001608D01*
X015100Y001706D01*
X015077Y001716D01*
X014936Y001857D01*
X014860Y002041D01*
X014860Y002879D01*
X014936Y003063D01*
X015077Y003204D01*
X015261Y003280D01*
X015460Y003280D01*
X015644Y003204D01*
X015784Y003063D01*
X015860Y002879D01*
X015860Y002041D01*
X015810Y001920D01*
X015934Y001920D01*
X015915Y001956D01*
X015892Y002028D01*
X015880Y002102D01*
X015880Y002420D01*
X016320Y002420D01*
X016320Y002500D01*
X015880Y002500D01*
X015880Y002818D01*
X015892Y002892D01*
X015915Y002964D01*
X015950Y003032D01*
X015994Y003093D01*
X016048Y003146D01*
X016109Y003191D01*
X016176Y003225D01*
X016248Y003248D01*
X016320Y003260D01*
X016320Y002500D01*
X016400Y002500D01*
X016400Y003260D01*
X016473Y003248D01*
X016545Y003225D01*
X016612Y003191D01*
X016673Y003146D01*
X016726Y003093D01*
X016771Y003032D01*
X016805Y002964D01*
X016828Y002892D01*
X016840Y002818D01*
X016840Y002500D01*
X016400Y002500D01*
X016400Y002420D01*
X016840Y002420D01*
X016840Y002102D01*
X016828Y002028D01*
X016805Y001956D01*
X016787Y001920D01*
X016910Y001920D01*
X016860Y002041D01*
X016860Y002879D01*
X016936Y003063D01*
X017077Y003204D01*
X017261Y003280D01*
X017460Y003280D01*
X017644Y003204D01*
X017784Y003063D01*
X017860Y002879D01*
X017860Y002041D01*
X017810Y001920D01*
X017910Y001920D01*
X017860Y002041D01*
X017860Y002879D01*
X017936Y003063D01*
X018077Y003204D01*
X018201Y003255D01*
X018124Y003287D01*
X018121Y003290D01*
X013233Y003290D01*
X013144Y003327D01*
X013077Y003394D01*
X013021Y003450D01*
X002680Y003450D01*
X002260Y003031D01*
X002260Y002515D01*
X002155Y002410D01*
X001366Y002410D01*
X001260Y002515D01*
X001260Y003305D01*
X001366Y003410D01*
X001961Y003410D01*
X001961Y003410D01*
X001553Y003410D01*
X001260Y003703D01*
X001260Y004117D01*
X000967Y004410D01*
X000553Y004410D01*
X000340Y004197D01*
X000340Y004651D01*
X000561Y004430D01*
X000720Y004430D01*
X000720Y004870D01*
X000800Y004870D01*
X000800Y004430D01*
X000959Y004430D01*
X001240Y004711D01*
X001240Y004870D01*
X000800Y004870D01*
X000800Y004950D01*
X000720Y004950D01*
X000720Y005390D01*
X000561Y005390D01*
X000340Y005169D01*
X000340Y007405D01*
X001967Y007405D01*
X001950Y007382D01*
X001915Y007314D01*
X001892Y007242D01*
X001880Y007168D01*
X001880Y006850D01*
X002320Y006850D01*
X002320Y006770D01*
X001880Y006770D01*
X001880Y006452D01*
X001892Y006378D01*
X001915Y006306D01*
X001950Y006238D01*
X001994Y006177D01*
X002048Y006124D01*
X002109Y006079D01*
X002176Y006045D01*
X002248Y006022D01*
X002320Y006010D01*
X002320Y006770D01*
X002400Y006770D01*
X002400Y006010D01*
X002425Y006014D01*
X002425Y005699D01*
X002695Y005430D01*
X003076Y005430D01*
X003345Y005699D01*
X003345Y005990D01*
X003460Y005990D01*
X003610Y006052D01*
X003610Y005875D01*
X003745Y005740D01*
X004061Y005740D01*
X003930Y005609D01*
X003930Y005450D01*
X004370Y005450D01*
X004370Y005370D01*
X003930Y005370D01*
X003930Y005211D01*
X004211Y004930D01*
X004370Y004930D01*
X004370Y005370D01*
X004450Y005370D01*
X004450Y004930D01*
X004609Y004930D01*
X004890Y005211D01*
X004890Y005370D01*
X004450Y005370D01*
X004450Y005450D01*
X004890Y005450D01*
X004890Y005515D01*
X005630Y004775D01*
X005630Y004515D01*
X005650Y004495D01*
X005785Y004360D01*
X011996Y004360D01*
X012236Y004600D01*
X012261Y004590D01*
X012460Y004590D01*
X012462Y004591D01*
X012462Y004471D01*
X012523Y004324D01*
X012635Y004212D01*
X012781Y004152D01*
X012940Y004152D01*
X013086Y004212D01*
X013198Y004324D01*
X013258Y004471D01*
X013258Y004591D01*
X013261Y004590D01*
X013460Y004590D01*
X013644Y004666D01*
X013784Y004807D01*
X013860Y004991D01*
X013936Y004807D01*
X014077Y004666D01*
X014261Y004590D01*
X014460Y004590D01*
X014644Y004666D01*
X014784Y004807D01*
X014860Y004991D01*
X014860Y005829D01*
X014810Y005950D01*
X014934Y005950D01*
X014915Y005914D01*
X014892Y005842D01*
X014880Y005768D01*
X014880Y005450D01*
X015320Y005450D01*
X015320Y005370D01*
X014880Y005370D01*
X014880Y005052D01*
X014892Y004978D01*
X014915Y004906D01*
X014950Y004838D01*
X014994Y004777D01*
X015048Y004724D01*
X015109Y004679D01*
X015176Y004645D01*
X015248Y004622D01*
X015320Y004610D01*
X015320Y005370D01*
X015400Y005370D01*
X015400Y004610D01*
X015473Y004622D01*
X015545Y004645D01*
X015612Y004679D01*
X015673Y004724D01*
X015726Y004777D01*
X015771Y004838D01*
X015805Y004906D01*
X015828Y004978D01*
X015840Y005052D01*
X015840Y005370D01*
X015400Y005370D01*
X015400Y005450D01*
X015840Y005450D01*
X015840Y005768D01*
X015828Y005842D01*
X015805Y005914D01*
X015787Y005950D01*
X015910Y005950D01*
X015860Y005829D01*
X015860Y004991D01*
X015936Y004807D01*
X016077Y004666D01*
X016261Y004590D01*
X016460Y004590D01*
X016644Y004666D01*
X016784Y004807D01*
X016860Y004991D01*
X016936Y004807D01*
X017077Y004666D01*
X017140Y004640D01*
X017140Y004589D01*
X016864Y004350D01*
X013960Y004350D01*
X013958Y004356D01*
X013846Y004468D01*
X013700Y004528D01*
X013541Y004528D01*
X013395Y004468D01*
X013283Y004356D01*
X013222Y004209D01*
X013222Y004150D01*
X002923Y004150D01*
X002943Y004170D01*
X003568Y004170D01*
X003656Y004207D01*
X003724Y004274D01*
X003742Y004292D01*
X003880Y004292D01*
X004026Y004352D01*
X004138Y004464D01*
X004198Y004611D01*
X004198Y004769D01*
X004138Y004916D01*
X004026Y005028D01*
X003880Y005088D01*
X003721Y005088D01*
X003575Y005028D01*
X003463Y004916D01*
X003402Y004769D01*
X003402Y004650D01*
X002943Y004650D01*
X002846Y004748D01*
X002700Y004808D01*
X002541Y004808D01*
X002395Y004748D01*
X002283Y004636D01*
X002222Y004489D01*
X002222Y004331D01*
X002283Y004184D01*
X002317Y004150D01*
X002227Y004150D01*
X001967Y004410D01*
X002260Y004703D01*
X002260Y005117D01*
X001967Y005410D01*
X001553Y005410D01*
X001260Y005117D01*
X001260Y004703D01*
X001553Y004410D01*
X001967Y004410D01*
X001553Y004410D01*
X001260Y004117D01*
X001260Y003703D01*
X000967Y003410D01*
X000553Y003410D01*
X000340Y003623D01*
X000340Y003197D01*
X000553Y003410D01*
X000967Y003410D01*
X001260Y003117D01*
X001260Y002703D01*
X000967Y002410D01*
X000553Y002410D01*
X000340Y002623D01*
X000340Y002562D02*
X000402Y002562D01*
X000340Y002443D02*
X000520Y002443D01*
X000340Y002325D02*
X002669Y002325D01*
X003101Y002325D02*
X003860Y002325D01*
X003860Y002443D02*
X002188Y002443D01*
X002260Y002562D02*
X003860Y002562D01*
X003860Y002567D02*
X003860Y002153D01*
X004153Y001860D01*
X004567Y001860D01*
X004860Y002153D01*
X004860Y002567D01*
X004567Y002860D01*
X004153Y002860D01*
X003860Y002567D01*
X003973Y002680D02*
X002260Y002680D01*
X002260Y002799D02*
X004092Y002799D01*
X004629Y002799D02*
X005860Y002799D01*
X005876Y002917D02*
X002260Y002917D01*
X001820Y002930D02*
X002580Y003690D01*
X013120Y003690D01*
X013280Y003530D01*
X018220Y003530D01*
X018260Y003490D01*
X019360Y004590D01*
X019360Y005410D01*
X019860Y005406D02*
X019860Y005406D01*
X019860Y005524D02*
X019860Y005524D01*
X020360Y005410D02*
X020360Y005650D01*
X019820Y006190D01*
X013080Y006190D01*
X012860Y005970D01*
X012860Y004550D01*
X012462Y004576D02*
X012212Y004576D01*
X012093Y004458D02*
X012468Y004458D01*
X012517Y004339D02*
X003993Y004339D01*
X003724Y004274D02*
X003724Y004274D01*
X003670Y004221D02*
X012627Y004221D01*
X013094Y004221D02*
X013227Y004221D01*
X013204Y004339D02*
X013276Y004339D01*
X013253Y004458D02*
X013385Y004458D01*
X013258Y004576D02*
X017125Y004576D01*
X016988Y004458D02*
X013856Y004458D01*
X013672Y004695D02*
X014049Y004695D01*
X013934Y004813D02*
X013787Y004813D01*
X013836Y004932D02*
X013885Y004932D01*
X013860Y004991D02*
X013860Y005829D01*
X013910Y005950D01*
X013810Y005950D01*
X013860Y005829D01*
X013860Y004991D01*
X013860Y005050D02*
X013860Y005050D01*
X013860Y005169D02*
X013860Y005169D01*
X013860Y005287D02*
X013860Y005287D01*
X013860Y005406D02*
X013860Y005406D01*
X013860Y005524D02*
X013860Y005524D01*
X013860Y005643D02*
X013860Y005643D01*
X013860Y005761D02*
X013860Y005761D01*
X013840Y005880D02*
X013881Y005880D01*
X014840Y005880D02*
X014904Y005880D01*
X014880Y005761D02*
X014860Y005761D01*
X014860Y005643D02*
X014880Y005643D01*
X014880Y005524D02*
X014860Y005524D01*
X014860Y005406D02*
X015320Y005406D01*
X015400Y005406D02*
X015860Y005406D01*
X015860Y005524D02*
X015840Y005524D01*
X015840Y005643D02*
X015860Y005643D01*
X015860Y005761D02*
X015840Y005761D01*
X015816Y005880D02*
X015881Y005880D01*
X016810Y005950D02*
X016860Y005829D01*
X016860Y004991D01*
X016860Y005829D01*
X016910Y005950D01*
X016810Y005950D01*
X016840Y005880D02*
X016881Y005880D01*
X016860Y005761D02*
X016860Y005761D01*
X016860Y005643D02*
X016860Y005643D01*
X016860Y005524D02*
X016860Y005524D01*
X016860Y005406D02*
X016860Y005406D01*
X016860Y005287D02*
X016860Y005287D01*
X016860Y005169D02*
X016860Y005169D01*
X016860Y005050D02*
X016860Y005050D01*
X016836Y004932D02*
X016885Y004932D01*
X016934Y004813D02*
X016787Y004813D01*
X016672Y004695D02*
X017049Y004695D01*
X016049Y004695D02*
X015633Y004695D01*
X015752Y004813D02*
X015934Y004813D01*
X015885Y004932D02*
X015814Y004932D01*
X015840Y005050D02*
X015860Y005050D01*
X015400Y005050D02*
X015320Y005050D01*
X015320Y004932D02*
X015400Y004932D01*
X014907Y004932D02*
X014836Y004932D01*
X014860Y005050D02*
X014881Y005050D01*
X014880Y005169D02*
X014860Y005169D01*
X014860Y005287D02*
X014880Y005287D01*
X015320Y005287D02*
X015400Y005287D01*
X015400Y005169D02*
X015320Y005169D01*
X015840Y005169D02*
X015860Y005169D01*
X015860Y005287D02*
X015840Y005287D01*
X015400Y004813D02*
X015320Y004813D01*
X015320Y004695D02*
X015400Y004695D01*
X015088Y004695D02*
X014672Y004695D01*
X014787Y004813D02*
X014968Y004813D01*
X017520Y003770D02*
X018360Y004650D01*
X018360Y005410D01*
X019860Y005287D02*
X019860Y005287D01*
X019860Y005169D02*
X019860Y005169D01*
X019860Y005050D02*
X019860Y005050D01*
X019860Y004991D02*
X019936Y004807D01*
X020077Y004666D01*
X020261Y004590D01*
X020460Y004590D01*
X020644Y004666D01*
X020784Y004807D01*
X020860Y004991D01*
X020936Y004807D01*
X021077Y004666D01*
X021261Y004590D01*
X021460Y004590D01*
X021644Y004666D01*
X021784Y004807D01*
X021860Y004991D01*
X021936Y004807D01*
X022077Y004666D01*
X022261Y004590D01*
X022460Y004590D01*
X022644Y004666D01*
X022784Y004807D01*
X022860Y004991D01*
X022936Y004807D01*
X023077Y004666D01*
X023261Y004590D01*
X023460Y004590D01*
X023644Y004666D01*
X023784Y004807D01*
X023860Y004991D01*
X023936Y004807D01*
X024077Y004666D01*
X024261Y004590D01*
X024460Y004590D01*
X024575Y004638D01*
X024573Y004636D01*
X024512Y004489D01*
X024512Y004331D01*
X024573Y004184D01*
X024685Y004072D01*
X024831Y004012D01*
X024990Y004012D01*
X025136Y004072D01*
X025213Y004150D01*
X026112Y004150D01*
X026208Y004190D01*
X026281Y004263D01*
X026875Y004857D01*
X026875Y004801D01*
X026936Y004654D01*
X026240Y003957D01*
X026200Y003862D01*
X026200Y003263D01*
X026123Y003186D01*
X026062Y003039D01*
X026062Y002881D01*
X026123Y002734D01*
X026235Y002622D01*
X026381Y002562D01*
X026540Y002562D01*
X026686Y002622D01*
X026798Y002734D01*
X026858Y002881D01*
X026858Y003039D01*
X026798Y003186D01*
X026720Y003263D01*
X026720Y003702D01*
X027483Y004465D01*
X027859Y004465D01*
X028013Y004529D01*
X028131Y004647D01*
X028195Y004801D01*
X028195Y004969D01*
X028131Y005123D01*
X028013Y005241D01*
X027859Y005305D01*
X027323Y005305D01*
X027668Y005650D01*
X028825Y005650D01*
X028800Y005626D01*
X028800Y005244D01*
X029070Y004975D01*
X029451Y004975D01*
X029720Y005244D01*
X029720Y005626D01*
X029686Y005660D01*
X029758Y005690D01*
X029831Y005763D01*
X030348Y006280D01*
X030421Y006250D01*
X030640Y006250D01*
X030842Y006334D01*
X030997Y006488D01*
X031026Y006560D01*
X032594Y006560D01*
X032624Y006488D01*
X032779Y006334D01*
X032981Y006250D01*
X033200Y006250D01*
X033402Y006334D01*
X033557Y006488D01*
X033640Y006691D01*
X033640Y006909D01*
X033557Y007112D01*
X033402Y007266D01*
X033200Y007350D01*
X032981Y007350D01*
X032779Y007266D01*
X032624Y007112D01*
X032594Y007040D01*
X031026Y007040D01*
X030997Y007112D01*
X030842Y007266D01*
X030640Y007350D01*
X030421Y007350D01*
X030219Y007266D01*
X030064Y007112D01*
X029980Y006909D01*
X029980Y006691D01*
X029993Y006660D01*
X029503Y006170D01*
X027509Y006170D01*
X027413Y006130D01*
X025953Y004670D01*
X025647Y004670D01*
X025784Y004807D01*
X025860Y004991D01*
X025860Y005829D01*
X025784Y006013D01*
X025644Y006154D01*
X025528Y006202D01*
X025621Y006240D01*
X025750Y006369D01*
X025820Y006538D01*
X025820Y007281D01*
X025769Y007405D01*
X034980Y007405D01*
X034980Y000490D01*
X034213Y000490D01*
X034222Y000494D01*
X034377Y000648D01*
X034460Y000851D01*
X034460Y001069D01*
X034377Y001272D01*
X034222Y001426D01*
X034116Y001470D01*
X034188Y001507D01*
X034256Y001556D01*
X034315Y001615D01*
X034364Y001682D01*
X034401Y001757D01*
X034427Y001836D01*
X034440Y001918D01*
X034440Y001940D01*
X033930Y001940D01*
X033930Y001980D01*
X033890Y001980D01*
X033890Y001940D01*
X033380Y001940D01*
X033380Y001918D01*
X033393Y001836D01*
X033419Y001757D01*
X033457Y001682D01*
X033506Y001615D01*
X033565Y001556D01*
X033633Y001507D01*
X033704Y001470D01*
X033599Y001426D01*
X033444Y001272D01*
X033360Y001069D01*
X033360Y000851D01*
X033444Y000648D01*
X033599Y000494D01*
X033608Y000490D01*
X032463Y000490D01*
X032472Y000494D01*
X032627Y000648D01*
X032710Y000851D01*
X032710Y001069D01*
X032627Y001272D01*
X032472Y001426D01*
X032270Y001510D01*
X032051Y001510D01*
X031849Y001426D01*
X031694Y001272D01*
X031610Y001069D01*
X031610Y000851D01*
X031694Y000648D01*
X031849Y000494D01*
X031858Y000490D01*
X029463Y000490D01*
X029472Y000494D01*
X029627Y000648D01*
X029710Y000851D01*
X029710Y001069D01*
X029627Y001272D01*
X029472Y001426D01*
X029270Y001510D01*
X029051Y001510D01*
X028849Y001426D01*
X028694Y001272D01*
X028610Y001069D01*
X028610Y000851D01*
X028694Y000648D01*
X028849Y000494D01*
X028858Y000490D01*
X028183Y000490D01*
X028246Y000511D01*
X028315Y000545D01*
X028376Y000590D01*
X028430Y000644D01*
X028475Y000706D01*
X028510Y000774D01*
X028533Y000846D01*
X028545Y000922D01*
X028545Y000951D01*
X028069Y000951D01*
X028069Y000969D01*
X028051Y000969D01*
X028051Y000951D01*
X027575Y000951D01*
X027575Y000922D01*
X027587Y000846D01*
X027611Y000774D01*
X027646Y000706D01*
X027690Y000644D01*
X027744Y000590D01*
X027806Y000545D01*
X027874Y000511D01*
X027937Y000490D01*
X027245Y000490D01*
X027346Y000532D01*
X027488Y000674D01*
X027565Y000860D01*
X027565Y001060D01*
X027488Y001246D01*
X027346Y001388D01*
X027161Y001465D01*
X026960Y001465D01*
X026828Y001410D01*
X026431Y001807D01*
X026358Y001880D01*
X026262Y001920D01*
X025810Y001920D01*
X025860Y002041D01*
X025860Y002879D01*
X025784Y003063D01*
X025644Y003204D01*
X025460Y003280D01*
X025261Y003280D01*
X025077Y003204D01*
X024936Y003063D01*
X024860Y002879D01*
X024784Y003063D01*
X024644Y003204D01*
X024460Y003280D01*
X024261Y003280D01*
X024077Y003204D01*
X023936Y003063D01*
X023860Y002879D01*
X023784Y003063D01*
X023644Y003204D01*
X023460Y003280D01*
X023261Y003280D01*
X023077Y003204D01*
X022936Y003063D01*
X022860Y002879D01*
X022784Y003063D01*
X022644Y003204D01*
X022460Y003280D01*
X022261Y003280D01*
X022077Y003204D01*
X021936Y003063D01*
X021860Y002879D01*
X021784Y003063D01*
X021644Y003204D01*
X021460Y003280D01*
X021261Y003280D01*
X021077Y003204D01*
X020936Y003063D01*
X020860Y002879D01*
X020784Y003063D01*
X020644Y003204D01*
X020460Y003280D01*
X020261Y003280D01*
X020077Y003204D01*
X019936Y003063D01*
X019860Y002879D01*
X019784Y003063D01*
X019644Y003204D01*
X019460Y003280D01*
X019261Y003280D01*
X019077Y003204D01*
X018936Y003063D01*
X018860Y002879D01*
X018784Y003063D01*
X018644Y003204D01*
X018460Y003280D01*
X018380Y003280D01*
X018396Y003287D01*
X018464Y003354D01*
X019496Y004387D01*
X019564Y004454D01*
X019600Y004542D01*
X019600Y004648D01*
X019644Y004666D01*
X019784Y004807D01*
X019860Y004991D01*
X019860Y005811D01*
X019860Y005811D01*
X019860Y004991D01*
X019836Y004932D02*
X019885Y004932D01*
X019934Y004813D02*
X019787Y004813D01*
X019672Y004695D02*
X020049Y004695D01*
X019600Y004576D02*
X024548Y004576D01*
X024512Y004458D02*
X019565Y004458D01*
X019449Y004339D02*
X024512Y004339D01*
X024558Y004221D02*
X019330Y004221D01*
X019212Y004102D02*
X024655Y004102D01*
X025165Y004102D02*
X026385Y004102D01*
X026266Y003984D02*
X019093Y003984D01*
X018975Y003865D02*
X026202Y003865D01*
X026200Y003747D02*
X018856Y003747D01*
X018738Y003628D02*
X026200Y003628D01*
X026200Y003510D02*
X018619Y003510D01*
X018501Y003391D02*
X026200Y003391D01*
X026200Y003273D02*
X025478Y003273D01*
X025243Y003273D02*
X024478Y003273D01*
X024243Y003273D02*
X023478Y003273D01*
X023243Y003273D02*
X022478Y003273D01*
X022243Y003273D02*
X021478Y003273D01*
X021243Y003273D02*
X020478Y003273D01*
X020243Y003273D02*
X019478Y003273D01*
X019243Y003273D02*
X018478Y003273D01*
X018464Y003354D02*
X018464Y003354D01*
X018158Y003273D02*
X017478Y003273D01*
X017243Y003273D02*
X015478Y003273D01*
X015243Y003273D02*
X014478Y003273D01*
X014243Y003273D02*
X013478Y003273D01*
X013243Y003273D02*
X012478Y003273D01*
X012243Y003273D02*
X011478Y003273D01*
X011243Y003273D02*
X010478Y003273D01*
X010243Y003273D02*
X009478Y003273D01*
X009243Y003273D02*
X008478Y003273D01*
X008243Y003273D02*
X007478Y003273D01*
X007243Y003273D02*
X006478Y003273D01*
X006243Y003273D02*
X002502Y003273D01*
X002621Y003391D02*
X013080Y003391D01*
X013027Y003154D02*
X012693Y003154D01*
X012796Y003036D02*
X012925Y003036D01*
X012876Y002917D02*
X012845Y002917D01*
X012860Y002799D02*
X012860Y002799D01*
X012860Y002680D02*
X012860Y002680D01*
X012860Y002562D02*
X012860Y002562D01*
X012860Y002443D02*
X012860Y002443D01*
X012860Y002325D02*
X012860Y002325D01*
X012860Y002206D02*
X012860Y002206D01*
X012860Y002088D02*
X012860Y002088D01*
X012831Y001969D02*
X012890Y001969D01*
X012943Y001851D02*
X012778Y001851D01*
X012659Y001732D02*
X013061Y001732D01*
X013181Y001614D02*
X012540Y001614D01*
X012181Y001614D02*
X011540Y001614D01*
X011659Y001732D02*
X012061Y001732D01*
X011943Y001851D02*
X011778Y001851D01*
X011831Y001969D02*
X011890Y001969D01*
X011860Y002088D02*
X011860Y002088D01*
X011860Y002206D02*
X011860Y002206D01*
X011860Y002325D02*
X011860Y002325D01*
X011860Y002443D02*
X011860Y002443D01*
X011860Y002562D02*
X011860Y002562D01*
X011860Y002680D02*
X011860Y002680D01*
X011860Y002799D02*
X011860Y002799D01*
X011845Y002917D02*
X011876Y002917D01*
X011925Y003036D02*
X011796Y003036D01*
X011693Y003154D02*
X012027Y003154D01*
X011027Y003154D02*
X010693Y003154D01*
X010796Y003036D02*
X010925Y003036D01*
X010876Y002917D02*
X010845Y002917D01*
X010860Y002799D02*
X010860Y002799D01*
X010860Y002680D02*
X010860Y002680D01*
X010860Y002562D02*
X010860Y002562D01*
X010860Y002443D02*
X010860Y002443D01*
X010860Y002325D02*
X010860Y002325D01*
X010860Y002206D02*
X010860Y002206D01*
X010860Y002088D02*
X010860Y002088D01*
X010831Y001969D02*
X010890Y001969D01*
X010943Y001851D02*
X010778Y001851D01*
X010659Y001732D02*
X011061Y001732D01*
X011181Y001614D02*
X010540Y001614D01*
X010181Y001614D02*
X009540Y001614D01*
X009659Y001732D02*
X010061Y001732D01*
X009943Y001851D02*
X009778Y001851D01*
X009831Y001969D02*
X009890Y001969D01*
X009860Y002088D02*
X009860Y002088D01*
X009860Y002206D02*
X009860Y002206D01*
X009860Y002325D02*
X009860Y002325D01*
X009860Y002443D02*
X009860Y002443D01*
X009860Y002562D02*
X009860Y002562D01*
X009860Y002680D02*
X009860Y002680D01*
X009860Y002799D02*
X009860Y002799D01*
X009845Y002917D02*
X009876Y002917D01*
X009925Y003036D02*
X009796Y003036D01*
X009693Y003154D02*
X010027Y003154D01*
X009027Y003154D02*
X008693Y003154D01*
X008796Y003036D02*
X008925Y003036D01*
X008876Y002917D02*
X008845Y002917D01*
X008860Y002799D02*
X008860Y002799D01*
X008860Y002680D02*
X008860Y002680D01*
X008860Y002562D02*
X008860Y002562D01*
X008860Y002443D02*
X008860Y002443D01*
X008860Y002325D02*
X008860Y002325D01*
X008860Y002206D02*
X008860Y002206D01*
X008860Y002088D02*
X008860Y002088D01*
X008831Y001969D02*
X008890Y001969D01*
X008943Y001851D02*
X008778Y001851D01*
X008659Y001732D02*
X009061Y001732D01*
X009181Y001614D02*
X008540Y001614D01*
X008181Y001614D02*
X007600Y001614D01*
X007659Y001732D02*
X008061Y001732D01*
X007943Y001851D02*
X007778Y001851D01*
X007831Y001969D02*
X007890Y001969D01*
X007860Y002088D02*
X007860Y002088D01*
X007860Y002206D02*
X007860Y002206D01*
X007860Y002325D02*
X007860Y002325D01*
X007860Y002443D02*
X007860Y002443D01*
X007860Y002562D02*
X007860Y002562D01*
X007860Y002680D02*
X007860Y002680D01*
X007860Y002799D02*
X007860Y002799D01*
X007845Y002917D02*
X007876Y002917D01*
X007925Y003036D02*
X007796Y003036D01*
X007693Y003154D02*
X008027Y003154D01*
X007027Y003154D02*
X006693Y003154D01*
X006796Y003036D02*
X006925Y003036D01*
X006876Y002917D02*
X006845Y002917D01*
X006860Y002799D02*
X006860Y002799D01*
X006860Y002680D02*
X006860Y002680D01*
X006860Y002562D02*
X006860Y002562D01*
X006860Y002443D02*
X006860Y002443D01*
X006860Y002325D02*
X006860Y002325D01*
X006860Y002206D02*
X006860Y002206D01*
X006860Y002088D02*
X006860Y002088D01*
X006831Y001969D02*
X006890Y001969D01*
X005943Y001851D02*
X003345Y001851D01*
X003345Y001969D02*
X004044Y001969D01*
X003926Y002088D02*
X003338Y002088D01*
X003220Y002206D02*
X003860Y002206D01*
X004676Y001969D02*
X005890Y001969D01*
X005860Y002088D02*
X004795Y002088D01*
X004860Y002206D02*
X005860Y002206D01*
X005860Y002325D02*
X004860Y002325D01*
X004860Y002443D02*
X005860Y002443D01*
X005860Y002562D02*
X004860Y002562D01*
X004747Y002680D02*
X005860Y002680D01*
X005925Y003036D02*
X002265Y003036D01*
X002384Y003154D02*
X006027Y003154D01*
X002551Y002206D02*
X000340Y002206D01*
X000340Y002088D02*
X002432Y002088D01*
X002425Y001969D02*
X000340Y001969D01*
X000340Y001851D02*
X002425Y001851D01*
X002400Y001732D02*
X002320Y001732D01*
X002320Y001614D02*
X002400Y001614D01*
X002097Y001732D02*
X000340Y001732D01*
X000340Y001614D02*
X001973Y001614D01*
X001909Y001495D02*
X000340Y001495D01*
X000340Y001377D02*
X001882Y001377D01*
X002320Y001377D02*
X002400Y001377D01*
X002400Y001495D02*
X002320Y001495D01*
X002830Y001430D02*
X002840Y001368D01*
X002840Y001050D01*
X002400Y001050D01*
X002400Y000970D01*
X002840Y000970D01*
X002840Y000652D01*
X002828Y000578D01*
X002805Y000506D01*
X002797Y000490D01*
X002902Y000490D01*
X002860Y000591D01*
X002860Y001429D01*
X002861Y001430D01*
X002830Y001430D01*
X002839Y001377D02*
X002860Y001377D01*
X002860Y001258D02*
X002840Y001258D01*
X002840Y001140D02*
X002860Y001140D01*
X002860Y001021D02*
X002400Y001021D01*
X002320Y001021D02*
X000340Y001021D01*
X000340Y000903D02*
X001880Y000903D01*
X001880Y000784D02*
X000340Y000784D01*
X000340Y000666D02*
X001880Y000666D01*
X001902Y000547D02*
X000340Y000547D01*
X002819Y000547D02*
X002878Y000547D01*
X002860Y000666D02*
X002840Y000666D01*
X002840Y000784D02*
X002860Y000784D01*
X002860Y000903D02*
X002840Y000903D01*
X003860Y000903D02*
X003860Y000903D01*
X003860Y001021D02*
X003860Y001021D01*
X003860Y001140D02*
X003860Y001140D01*
X003860Y001258D02*
X003860Y001258D01*
X003860Y001377D02*
X003860Y001377D01*
X003833Y001495D02*
X003887Y001495D01*
X003937Y001614D02*
X003784Y001614D01*
X003665Y001732D02*
X004055Y001732D01*
X004665Y001732D02*
X005803Y001732D01*
X005684Y001614D02*
X004784Y001614D01*
X004833Y001495D02*
X005566Y001495D01*
X005447Y001377D02*
X004860Y001377D01*
X004860Y001258D02*
X005329Y001258D01*
X005420Y001010D02*
X004360Y001010D01*
X003860Y000784D02*
X003860Y000784D01*
X003860Y000666D02*
X003860Y000666D01*
X003842Y000547D02*
X003878Y000547D01*
X005420Y001010D02*
X006040Y001630D01*
X007340Y001630D01*
X007360Y001610D01*
X007360Y000910D01*
X007820Y000903D02*
X007900Y000903D01*
X007900Y001021D02*
X007820Y001021D01*
X007820Y001140D02*
X007900Y001140D01*
X007900Y001258D02*
X007820Y001258D01*
X007781Y001377D02*
X007940Y001377D01*
X008015Y001495D02*
X007706Y001495D01*
X008706Y001495D02*
X009015Y001495D01*
X008940Y001377D02*
X008781Y001377D01*
X008820Y001258D02*
X008900Y001258D01*
X008900Y001140D02*
X008820Y001140D01*
X008820Y001021D02*
X008900Y001021D01*
X008900Y000903D02*
X008820Y000903D01*
X008820Y000784D02*
X008900Y000784D01*
X008900Y000666D02*
X008820Y000666D01*
X008820Y000547D02*
X008900Y000547D01*
X009820Y000547D02*
X009900Y000547D01*
X009900Y000666D02*
X009820Y000666D01*
X009820Y000784D02*
X009900Y000784D01*
X009900Y000903D02*
X009820Y000903D01*
X009820Y001021D02*
X009900Y001021D01*
X009900Y001140D02*
X009820Y001140D01*
X009820Y001258D02*
X009900Y001258D01*
X009940Y001377D02*
X009781Y001377D01*
X009706Y001495D02*
X010015Y001495D01*
X010706Y001495D02*
X011015Y001495D01*
X010940Y001377D02*
X010781Y001377D01*
X010820Y001258D02*
X010900Y001258D01*
X010900Y001140D02*
X010820Y001140D01*
X010820Y001021D02*
X010900Y001021D01*
X010900Y000903D02*
X010820Y000903D01*
X010820Y000784D02*
X010900Y000784D01*
X010900Y000666D02*
X010820Y000666D01*
X010820Y000547D02*
X010900Y000547D01*
X011820Y000547D02*
X011900Y000547D01*
X011900Y000666D02*
X011820Y000666D01*
X011820Y000784D02*
X011900Y000784D01*
X011900Y000903D02*
X011820Y000903D01*
X011820Y001021D02*
X011900Y001021D01*
X011900Y001140D02*
X011820Y001140D01*
X011820Y001258D02*
X011900Y001258D01*
X011940Y001377D02*
X011781Y001377D01*
X011706Y001495D02*
X012015Y001495D01*
X012706Y001495D02*
X013015Y001495D01*
X012940Y001377D02*
X012781Y001377D01*
X012820Y001258D02*
X012900Y001258D01*
X012900Y001140D02*
X012820Y001140D01*
X012820Y001021D02*
X012900Y001021D01*
X012900Y000903D02*
X012820Y000903D01*
X012820Y000784D02*
X012900Y000784D01*
X012900Y000666D02*
X012820Y000666D01*
X012820Y000547D02*
X012900Y000547D01*
X013820Y000547D02*
X013900Y000547D01*
X013900Y000666D02*
X013820Y000666D01*
X013820Y000784D02*
X013900Y000784D01*
X013900Y000903D02*
X013820Y000903D01*
X013820Y001021D02*
X013900Y001021D01*
X013900Y001140D02*
X013820Y001140D01*
X013820Y001258D02*
X013900Y001258D01*
X013940Y001377D02*
X013781Y001377D01*
X013706Y001495D02*
X014015Y001495D01*
X014181Y001614D02*
X013540Y001614D01*
X013659Y001732D02*
X014061Y001732D01*
X013943Y001851D02*
X013778Y001851D01*
X013831Y001969D02*
X013890Y001969D01*
X013860Y002088D02*
X013860Y002088D01*
X013860Y002206D02*
X013860Y002206D01*
X013860Y002325D02*
X013860Y002325D01*
X013860Y002443D02*
X013860Y002443D01*
X013860Y002562D02*
X013860Y002562D01*
X013860Y002680D02*
X013860Y002680D01*
X013860Y002799D02*
X013860Y002799D01*
X013845Y002917D02*
X013876Y002917D01*
X013925Y003036D02*
X013796Y003036D01*
X013693Y003154D02*
X014027Y003154D01*
X014693Y003154D02*
X015027Y003154D01*
X014925Y003036D02*
X014796Y003036D01*
X014845Y002917D02*
X014876Y002917D01*
X014860Y002799D02*
X014860Y002799D01*
X014860Y002680D02*
X014860Y002680D01*
X014860Y002562D02*
X014860Y002562D01*
X014860Y002443D02*
X014860Y002443D01*
X014860Y002325D02*
X014860Y002325D01*
X014860Y002206D02*
X014860Y002206D01*
X014860Y002088D02*
X014860Y002088D01*
X014831Y001969D02*
X014890Y001969D01*
X014943Y001851D02*
X014778Y001851D01*
X014659Y001732D02*
X015061Y001732D01*
X015100Y001614D02*
X014540Y001614D01*
X014706Y001495D02*
X015015Y001495D01*
X014940Y001377D02*
X014781Y001377D01*
X014820Y001258D02*
X014900Y001258D01*
X014900Y001140D02*
X014820Y001140D01*
X014820Y001021D02*
X014900Y001021D01*
X014900Y000903D02*
X014820Y000903D01*
X014820Y000784D02*
X014900Y000784D01*
X014900Y000666D02*
X014820Y000666D01*
X014820Y000547D02*
X014900Y000547D01*
X015800Y000490D02*
X015820Y000538D01*
X015820Y001281D01*
X015771Y001400D01*
X015973Y001400D01*
X015953Y001359D01*
X015931Y001293D01*
X015920Y001225D01*
X015920Y000930D01*
X016340Y000930D01*
X016340Y000890D01*
X015920Y000890D01*
X015920Y000595D01*
X015931Y000527D01*
X015943Y000490D01*
X015800Y000490D01*
X015820Y000547D02*
X015928Y000547D01*
X016340Y000547D02*
X016380Y000547D01*
X016380Y000490D02*
X016380Y000890D01*
X016340Y000890D01*
X016340Y000490D01*
X016380Y000490D01*
X016777Y000490D02*
X016789Y000527D01*
X016800Y000595D01*
X016800Y000890D01*
X016380Y000890D01*
X016380Y000930D01*
X016380Y001400D01*
X016340Y001400D01*
X016340Y000930D01*
X016380Y000930D01*
X016800Y000930D01*
X016800Y001225D01*
X016789Y001293D01*
X016768Y001359D01*
X016747Y001400D01*
X016949Y001400D01*
X016900Y001281D01*
X016900Y000538D01*
X016920Y000490D01*
X016777Y000490D01*
X016793Y000547D02*
X016900Y000547D01*
X016900Y000666D02*
X016800Y000666D01*
X016800Y000784D02*
X016900Y000784D01*
X016380Y000784D02*
X016340Y000784D01*
X016340Y000666D02*
X016380Y000666D01*
X015920Y000666D02*
X015820Y000666D01*
X015820Y000784D02*
X015920Y000784D01*
X015820Y000903D02*
X016340Y000903D01*
X016380Y000903D02*
X016900Y000903D01*
X016900Y001021D02*
X016800Y001021D01*
X016380Y001021D02*
X016340Y001021D01*
X015920Y001021D02*
X015820Y001021D01*
X015820Y001140D02*
X015920Y001140D01*
X015926Y001258D02*
X015820Y001258D01*
X015781Y001377D02*
X015962Y001377D01*
X016340Y001377D02*
X016380Y001377D01*
X016759Y001377D02*
X016940Y001377D01*
X016900Y001258D02*
X016795Y001258D01*
X016800Y001140D02*
X016900Y001140D01*
X016380Y001140D02*
X016340Y001140D01*
X016340Y001258D02*
X016380Y001258D01*
X016809Y001969D02*
X016890Y001969D01*
X016860Y002088D02*
X016838Y002088D01*
X016840Y002206D02*
X016860Y002206D01*
X016860Y002325D02*
X016840Y002325D01*
X016860Y002443D02*
X016400Y002443D01*
X016320Y002443D02*
X015860Y002443D01*
X015860Y002325D02*
X015880Y002325D01*
X015880Y002206D02*
X015860Y002206D01*
X015860Y002088D02*
X015883Y002088D01*
X015911Y001969D02*
X015831Y001969D01*
X017831Y001969D02*
X017890Y001969D01*
X017860Y002088D02*
X017860Y002088D01*
X017860Y002206D02*
X017860Y002206D01*
X017860Y002325D02*
X017860Y002325D01*
X017860Y002443D02*
X017860Y002443D01*
X017860Y002562D02*
X017860Y002562D01*
X017860Y002680D02*
X017860Y002680D01*
X017860Y002799D02*
X017860Y002799D01*
X017845Y002917D02*
X017876Y002917D01*
X017925Y003036D02*
X017796Y003036D01*
X017693Y003154D02*
X018027Y003154D01*
X018693Y003154D02*
X019027Y003154D01*
X018925Y003036D02*
X018796Y003036D01*
X018845Y002917D02*
X018876Y002917D01*
X018860Y002879D02*
X018860Y002041D01*
X018810Y001920D01*
X018910Y001920D01*
X018860Y002041D01*
X018860Y002879D01*
X018860Y002799D02*
X018860Y002799D01*
X018860Y002680D02*
X018860Y002680D01*
X018860Y002562D02*
X018860Y002562D01*
X018860Y002443D02*
X018860Y002443D01*
X018860Y002325D02*
X018860Y002325D01*
X018860Y002206D02*
X018860Y002206D01*
X018860Y002088D02*
X018860Y002088D01*
X018831Y001969D02*
X018890Y001969D01*
X019810Y001920D02*
X019860Y002041D01*
X019860Y002879D01*
X019860Y002041D01*
X019910Y001920D01*
X019810Y001920D01*
X019831Y001969D02*
X019890Y001969D01*
X019860Y002088D02*
X019860Y002088D01*
X019860Y002206D02*
X019860Y002206D01*
X019860Y002325D02*
X019860Y002325D01*
X019860Y002443D02*
X019860Y002443D01*
X019860Y002562D02*
X019860Y002562D01*
X019860Y002680D02*
X019860Y002680D01*
X019860Y002799D02*
X019860Y002799D01*
X019845Y002917D02*
X019876Y002917D01*
X019925Y003036D02*
X019796Y003036D01*
X019693Y003154D02*
X020027Y003154D01*
X020693Y003154D02*
X021027Y003154D01*
X020925Y003036D02*
X020796Y003036D01*
X020845Y002917D02*
X020876Y002917D01*
X020860Y002879D02*
X020860Y002041D01*
X020810Y001920D01*
X020910Y001920D01*
X020860Y002041D01*
X020860Y002879D01*
X020860Y002799D02*
X020860Y002799D01*
X020860Y002680D02*
X020860Y002680D01*
X020860Y002562D02*
X020860Y002562D01*
X020860Y002443D02*
X020860Y002443D01*
X020860Y002325D02*
X020860Y002325D01*
X020860Y002206D02*
X020860Y002206D01*
X020860Y002088D02*
X020860Y002088D01*
X020831Y001969D02*
X020890Y001969D01*
X021810Y001920D02*
X021860Y002041D01*
X021860Y002879D01*
X021860Y002041D01*
X021910Y001920D01*
X021810Y001920D01*
X021831Y001969D02*
X021890Y001969D01*
X021860Y002088D02*
X021860Y002088D01*
X021860Y002206D02*
X021860Y002206D01*
X021860Y002325D02*
X021860Y002325D01*
X021860Y002443D02*
X021860Y002443D01*
X021860Y002562D02*
X021860Y002562D01*
X021860Y002680D02*
X021860Y002680D01*
X021860Y002799D02*
X021860Y002799D01*
X021845Y002917D02*
X021876Y002917D01*
X021925Y003036D02*
X021796Y003036D01*
X021693Y003154D02*
X022027Y003154D01*
X022693Y003154D02*
X023027Y003154D01*
X022925Y003036D02*
X022796Y003036D01*
X022845Y002917D02*
X022876Y002917D01*
X022860Y002879D02*
X022860Y002041D01*
X022810Y001920D01*
X022910Y001920D01*
X022860Y002041D01*
X022860Y002879D01*
X022860Y002799D02*
X022860Y002799D01*
X022860Y002680D02*
X022860Y002680D01*
X022860Y002562D02*
X022860Y002562D01*
X022860Y002443D02*
X022860Y002443D01*
X022860Y002325D02*
X022860Y002325D01*
X022860Y002206D02*
X022860Y002206D01*
X022860Y002088D02*
X022860Y002088D01*
X022831Y001969D02*
X022890Y001969D01*
X023810Y001920D02*
X023860Y002041D01*
X023860Y002879D01*
X023860Y002041D01*
X023910Y001920D01*
X023810Y001920D01*
X023831Y001969D02*
X023890Y001969D01*
X023860Y002088D02*
X023860Y002088D01*
X023860Y002206D02*
X023860Y002206D01*
X023860Y002325D02*
X023860Y002325D01*
X023860Y002443D02*
X023860Y002443D01*
X023860Y002562D02*
X023860Y002562D01*
X023860Y002680D02*
X023860Y002680D01*
X023860Y002799D02*
X023860Y002799D01*
X023845Y002917D02*
X023876Y002917D01*
X023925Y003036D02*
X023796Y003036D01*
X023693Y003154D02*
X024027Y003154D01*
X024693Y003154D02*
X025027Y003154D01*
X024925Y003036D02*
X024796Y003036D01*
X024845Y002917D02*
X024876Y002917D01*
X024860Y002879D02*
X024860Y002041D01*
X024810Y001920D01*
X024910Y001920D01*
X024860Y002041D01*
X024860Y002879D01*
X024860Y002799D02*
X024860Y002799D01*
X024860Y002680D02*
X024860Y002680D01*
X024860Y002562D02*
X024860Y002562D01*
X024860Y002443D02*
X024860Y002443D01*
X024860Y002325D02*
X024860Y002325D01*
X024860Y002206D02*
X024860Y002206D01*
X024860Y002088D02*
X024860Y002088D01*
X024831Y001969D02*
X024890Y001969D01*
X025831Y001969D02*
X028976Y001969D01*
X029070Y001875D02*
X029451Y001875D01*
X029720Y002144D01*
X029720Y002526D01*
X029451Y002795D01*
X029070Y002795D01*
X028800Y002526D01*
X028800Y002144D01*
X029070Y001875D01*
X029545Y001969D02*
X033890Y001969D01*
X033890Y001980D02*
X033380Y001980D01*
X033380Y002002D01*
X033393Y002084D01*
X033419Y002163D01*
X033457Y002238D01*
X033506Y002305D01*
X033565Y002364D01*
X033633Y002413D01*
X033707Y002451D01*
X033786Y002477D01*
X033869Y002490D01*
X033890Y002490D01*
X033890Y001980D01*
X033930Y001980D02*
X033930Y002490D01*
X033952Y002490D01*
X034034Y002477D01*
X034114Y002451D01*
X034188Y002413D01*
X034256Y002364D01*
X034315Y002305D01*
X034364Y002238D01*
X034401Y002163D01*
X034427Y002084D01*
X034440Y002002D01*
X034440Y001980D01*
X033930Y001980D01*
X033930Y001969D02*
X034980Y001969D01*
X034980Y001851D02*
X034430Y001851D01*
X034389Y001732D02*
X034980Y001732D01*
X034980Y001614D02*
X034313Y001614D01*
X034165Y001495D02*
X034980Y001495D01*
X034980Y001377D02*
X034272Y001377D01*
X034382Y001258D02*
X034980Y001258D01*
X034980Y001140D02*
X034431Y001140D01*
X034460Y001021D02*
X034980Y001021D01*
X034980Y000903D02*
X034460Y000903D01*
X034433Y000784D02*
X034980Y000784D01*
X034980Y000666D02*
X034384Y000666D01*
X034275Y000547D02*
X034980Y000547D01*
X033545Y000547D02*
X032525Y000547D01*
X032634Y000666D02*
X033437Y000666D01*
X033388Y000784D02*
X032683Y000784D01*
X032710Y000903D02*
X033360Y000903D01*
X033360Y001021D02*
X032710Y001021D01*
X032681Y001140D02*
X033389Y001140D01*
X033438Y001258D02*
X032632Y001258D01*
X032522Y001377D02*
X033549Y001377D01*
X033655Y001495D02*
X032306Y001495D01*
X032015Y001495D02*
X029306Y001495D01*
X029522Y001377D02*
X031799Y001377D01*
X031688Y001258D02*
X029632Y001258D01*
X029681Y001140D02*
X031639Y001140D01*
X031610Y001021D02*
X029710Y001021D01*
X029710Y000903D02*
X031610Y000903D01*
X031638Y000784D02*
X029683Y000784D01*
X029634Y000666D02*
X031687Y000666D01*
X031795Y000547D02*
X029525Y000547D01*
X028795Y000547D02*
X028317Y000547D01*
X028446Y000666D02*
X028687Y000666D01*
X028638Y000784D02*
X028513Y000784D01*
X028542Y000903D02*
X028610Y000903D01*
X028545Y000969D02*
X028545Y000998D01*
X028533Y001074D01*
X028510Y001146D01*
X028475Y001214D01*
X028430Y001276D01*
X028376Y001330D01*
X028315Y001375D01*
X028246Y001409D01*
X028174Y001433D01*
X028098Y001445D01*
X028069Y001445D01*
X028069Y000969D01*
X028545Y000969D01*
X028542Y001021D02*
X028610Y001021D01*
X028639Y001140D02*
X028512Y001140D01*
X028443Y001258D02*
X028688Y001258D01*
X028799Y001377D02*
X028311Y001377D01*
X028069Y001377D02*
X028051Y001377D01*
X028051Y001445D02*
X028022Y001445D01*
X027947Y001433D01*
X027874Y001409D01*
X027806Y001375D01*
X027744Y001330D01*
X027690Y001276D01*
X027646Y001214D01*
X027611Y001146D01*
X027587Y001074D01*
X027575Y000998D01*
X027575Y000969D01*
X028051Y000969D01*
X028051Y001445D01*
X027809Y001377D02*
X027358Y001377D01*
X027476Y001258D02*
X027677Y001258D01*
X027609Y001140D02*
X027533Y001140D01*
X027565Y001021D02*
X027579Y001021D01*
X027565Y000903D02*
X027578Y000903D01*
X028051Y001021D02*
X028069Y001021D01*
X028069Y001140D02*
X028051Y001140D01*
X028051Y001258D02*
X028069Y001258D01*
X029015Y001495D02*
X026743Y001495D01*
X026625Y001614D02*
X033507Y001614D01*
X033432Y001732D02*
X026506Y001732D01*
X026388Y001851D02*
X033391Y001851D01*
X033394Y002088D02*
X032073Y002088D01*
X032076Y002090D02*
X032130Y002144D01*
X032175Y002206D01*
X033441Y002206D01*
X033890Y002206D02*
X033930Y002206D01*
X033930Y002088D02*
X033890Y002088D01*
X034380Y002206D02*
X034980Y002206D01*
X034980Y002088D02*
X034426Y002088D01*
X034295Y002325D02*
X034980Y002325D01*
X034980Y002443D02*
X034130Y002443D01*
X033930Y002443D02*
X033890Y002443D01*
X033890Y002325D02*
X033930Y002325D01*
X033691Y002443D02*
X032245Y002443D01*
X032245Y002451D02*
X031769Y002451D01*
X031769Y001975D01*
X031798Y001975D01*
X031874Y001987D01*
X031946Y002011D01*
X032015Y002045D01*
X032076Y002090D01*
X032175Y002206D02*
X032210Y002274D01*
X032233Y002346D01*
X032245Y002422D01*
X032245Y002451D01*
X032245Y002469D02*
X032245Y002498D01*
X032233Y002574D01*
X032210Y002646D01*
X032175Y002714D01*
X032130Y002776D01*
X032076Y002830D01*
X032015Y002875D01*
X031946Y002909D01*
X031874Y002933D01*
X031798Y002945D01*
X031769Y002945D01*
X031769Y002469D01*
X031751Y002469D01*
X031751Y002451D01*
X031275Y002451D01*
X031275Y002422D01*
X031287Y002346D01*
X031311Y002274D01*
X031346Y002206D01*
X031390Y002144D01*
X031444Y002090D01*
X031506Y002045D01*
X031574Y002011D01*
X031647Y001987D01*
X031722Y001975D01*
X031751Y001975D01*
X031751Y002451D01*
X031769Y002451D01*
X031769Y002469D01*
X032245Y002469D01*
X032235Y002562D02*
X034980Y002562D01*
X034980Y002680D02*
X032193Y002680D01*
X032108Y002799D02*
X034980Y002799D01*
X034980Y002917D02*
X031923Y002917D01*
X031769Y002917D02*
X031751Y002917D01*
X031751Y002945D02*
X031722Y002945D01*
X031647Y002933D01*
X031574Y002909D01*
X031506Y002875D01*
X031444Y002830D01*
X031390Y002776D01*
X031346Y002714D01*
X031311Y002646D01*
X031287Y002574D01*
X031275Y002498D01*
X031275Y002469D01*
X031751Y002469D01*
X031751Y002945D01*
X031597Y002917D02*
X029465Y002917D01*
X029443Y002895D02*
X029700Y003153D01*
X029700Y003315D01*
X029280Y003315D01*
X029280Y002895D01*
X029443Y002895D01*
X029280Y002917D02*
X029240Y002917D01*
X029240Y002895D02*
X029240Y003315D01*
X028820Y003315D01*
X028820Y003153D01*
X029078Y002895D01*
X029240Y002895D01*
X029056Y002917D02*
X028195Y002917D01*
X028195Y002969D02*
X028195Y002801D01*
X028131Y002647D01*
X028013Y002529D01*
X027859Y002465D01*
X027212Y002465D01*
X027057Y002529D01*
X026939Y002647D01*
X026875Y002801D01*
X026875Y002969D01*
X026939Y003123D01*
X027057Y003241D01*
X027212Y003305D01*
X027859Y003305D01*
X028013Y003241D01*
X028131Y003123D01*
X028195Y002969D01*
X028168Y003036D02*
X028938Y003036D01*
X028820Y003154D02*
X028100Y003154D01*
X027937Y003273D02*
X028820Y003273D01*
X028820Y003355D02*
X029240Y003355D01*
X029240Y003315D01*
X029280Y003315D01*
X029280Y003355D01*
X029240Y003355D01*
X029240Y003775D01*
X029078Y003775D01*
X028820Y003517D01*
X028820Y003355D01*
X028820Y003391D02*
X026720Y003391D01*
X026720Y003273D02*
X027133Y003273D01*
X026970Y003154D02*
X026811Y003154D01*
X026858Y003036D02*
X026903Y003036D01*
X026875Y002917D02*
X026858Y002917D01*
X026877Y002799D02*
X026824Y002799D01*
X026743Y002680D02*
X026926Y002680D01*
X027025Y002562D02*
X025860Y002562D01*
X025860Y002680D02*
X026177Y002680D01*
X026096Y002799D02*
X025860Y002799D01*
X025845Y002917D02*
X026062Y002917D01*
X026062Y003036D02*
X025796Y003036D01*
X025693Y003154D02*
X026110Y003154D01*
X026720Y003510D02*
X028820Y003510D01*
X028931Y003628D02*
X026720Y003628D01*
X026765Y003747D02*
X029050Y003747D01*
X029240Y003747D02*
X029280Y003747D01*
X029280Y003775D02*
X029280Y003355D01*
X029700Y003355D01*
X029700Y003517D01*
X029443Y003775D01*
X029280Y003775D01*
X029471Y003747D02*
X031255Y003747D01*
X031255Y003860D02*
X031255Y003060D01*
X031361Y002955D01*
X032160Y002955D01*
X032265Y003060D01*
X032265Y003860D01*
X032160Y003965D01*
X031361Y003965D01*
X031255Y003860D01*
X031261Y003865D02*
X026883Y003865D01*
X027002Y003984D02*
X034980Y003984D01*
X034980Y004102D02*
X029550Y004102D01*
X029443Y003995D02*
X029280Y003995D01*
X029280Y004415D01*
X029240Y004415D01*
X028820Y004415D01*
X028820Y004253D01*
X029078Y003995D01*
X029240Y003995D01*
X029240Y004415D01*
X029240Y004455D01*
X028820Y004455D01*
X028820Y004617D01*
X029078Y004875D01*
X029240Y004875D01*
X029240Y004455D01*
X029280Y004455D01*
X029280Y004875D01*
X029443Y004875D01*
X029700Y004617D01*
X029700Y004455D01*
X029280Y004455D01*
X029280Y004415D01*
X029700Y004415D01*
X029700Y004253D01*
X029443Y003995D01*
X029280Y004102D02*
X029240Y004102D01*
X028971Y004102D02*
X027120Y004102D01*
X027239Y004221D02*
X028853Y004221D01*
X028820Y004339D02*
X027357Y004339D01*
X027476Y004458D02*
X028820Y004458D01*
X028820Y004576D02*
X028060Y004576D01*
X028151Y004695D02*
X028898Y004695D01*
X029016Y004813D02*
X028195Y004813D01*
X028195Y004932D02*
X030008Y004932D01*
X030013Y004896D02*
X030000Y004978D01*
X030000Y004980D01*
X030490Y004980D01*
X030490Y005060D01*
X030000Y005060D01*
X030000Y005062D01*
X030013Y005144D01*
X030039Y005223D01*
X030077Y005298D01*
X030126Y005365D01*
X030185Y005424D01*
X030253Y005473D01*
X030327Y005511D01*
X030406Y005537D01*
X030489Y005550D01*
X030490Y005550D01*
X030490Y005060D01*
X030570Y005060D01*
X030570Y005550D01*
X030572Y005550D01*
X030654Y005537D01*
X030734Y005511D01*
X030808Y005473D01*
X030876Y005424D01*
X030935Y005365D01*
X030984Y005298D01*
X031021Y005223D01*
X031047Y005144D01*
X031060Y005062D01*
X031060Y005060D01*
X030570Y005060D01*
X030570Y004980D01*
X030570Y004490D01*
X030572Y004490D01*
X030654Y004503D01*
X030734Y004529D01*
X030808Y004567D01*
X030876Y004616D01*
X030935Y004675D01*
X030984Y004742D01*
X031021Y004817D01*
X031047Y004896D01*
X031060Y004978D01*
X031060Y004980D01*
X030570Y004980D01*
X030490Y004980D01*
X030490Y004490D01*
X030489Y004490D01*
X030406Y004503D01*
X030327Y004529D01*
X030253Y004567D01*
X030185Y004616D01*
X030126Y004675D01*
X030077Y004742D01*
X030039Y004817D01*
X030013Y004896D01*
X030041Y004813D02*
X029505Y004813D01*
X029623Y004695D02*
X030112Y004695D01*
X030490Y004695D02*
X030570Y004695D01*
X030570Y004813D02*
X030490Y004813D01*
X030949Y004695D02*
X032672Y004695D01*
X032686Y004675D02*
X032637Y004742D01*
X032599Y004817D01*
X032573Y004896D01*
X032560Y004978D01*
X032560Y004980D01*
X033050Y004980D01*
X033050Y005060D01*
X032560Y005060D01*
X032560Y005062D01*
X032573Y005144D01*
X032599Y005223D01*
X032637Y005298D01*
X032686Y005365D01*
X032745Y005424D01*
X032813Y005473D01*
X032887Y005511D01*
X032966Y005537D01*
X033049Y005550D01*
X033050Y005550D01*
X033050Y005060D01*
X033130Y005060D01*
X033130Y005550D01*
X033132Y005550D01*
X033214Y005537D01*
X033294Y005511D01*
X033368Y005473D01*
X033436Y005424D01*
X033495Y005365D01*
X033544Y005298D01*
X033581Y005223D01*
X033607Y005144D01*
X033620Y005062D01*
X033620Y005060D01*
X033130Y005060D01*
X033130Y004980D01*
X033130Y004490D01*
X033132Y004490D01*
X033214Y004503D01*
X033294Y004529D01*
X033368Y004567D01*
X033436Y004616D01*
X033495Y004675D01*
X033544Y004742D01*
X033581Y004817D01*
X033607Y004896D01*
X033620Y004978D01*
X033620Y004980D01*
X033130Y004980D01*
X033050Y004980D01*
X033050Y004490D01*
X033049Y004490D01*
X032966Y004503D01*
X032887Y004529D01*
X032813Y004567D01*
X032745Y004616D01*
X032686Y004675D01*
X032800Y004576D02*
X030821Y004576D01*
X030570Y004576D02*
X030490Y004576D01*
X030240Y004576D02*
X029700Y004576D01*
X029700Y004458D02*
X034980Y004458D01*
X034980Y004576D02*
X033381Y004576D01*
X033130Y004576D02*
X033050Y004576D01*
X033050Y004695D02*
X033130Y004695D01*
X033130Y004813D02*
X033050Y004813D01*
X032601Y004813D02*
X031020Y004813D01*
X031053Y004932D02*
X032568Y004932D01*
X033050Y004932D02*
X033130Y004932D01*
X033130Y005050D02*
X034980Y005050D01*
X034980Y004932D02*
X033613Y004932D01*
X033580Y004813D02*
X034980Y004813D01*
X034980Y004695D02*
X033509Y004695D01*
X033050Y005050D02*
X030570Y005050D01*
X030490Y005050D02*
X029526Y005050D01*
X028995Y005050D02*
X028162Y005050D01*
X028086Y005169D02*
X028876Y005169D01*
X028800Y005287D02*
X027902Y005287D01*
X027424Y005406D02*
X028800Y005406D01*
X028800Y005524D02*
X027542Y005524D01*
X027661Y005643D02*
X028817Y005643D01*
X029703Y005643D02*
X034980Y005643D01*
X034980Y005761D02*
X029829Y005761D01*
X029948Y005880D02*
X034980Y005880D01*
X034980Y005998D02*
X030066Y005998D01*
X030185Y006117D02*
X034980Y006117D01*
X034980Y006235D02*
X030303Y006235D01*
X030862Y006354D02*
X032759Y006354D01*
X032640Y006472D02*
X030980Y006472D01*
X029980Y006709D02*
X028521Y006709D01*
X028510Y006674D02*
X028533Y006746D01*
X028545Y006822D01*
X028545Y006851D01*
X028069Y006851D01*
X028069Y006375D01*
X028098Y006375D01*
X028174Y006387D01*
X028246Y006411D01*
X028315Y006445D01*
X028376Y006490D01*
X028430Y006544D01*
X028475Y006606D01*
X028510Y006674D01*
X028464Y006591D02*
X029923Y006591D01*
X029805Y006472D02*
X028351Y006472D01*
X028069Y006472D02*
X028051Y006472D01*
X028051Y006375D02*
X028051Y006851D01*
X027575Y006851D01*
X027575Y006822D01*
X027587Y006746D01*
X027611Y006674D01*
X027646Y006606D01*
X027690Y006544D01*
X027744Y006490D01*
X027806Y006445D01*
X027874Y006411D01*
X027947Y006387D01*
X028022Y006375D01*
X028051Y006375D01*
X027769Y006472D02*
X027387Y006472D01*
X027346Y006432D02*
X027488Y006574D01*
X027565Y006760D01*
X027565Y006960D01*
X027488Y007146D01*
X027346Y007288D01*
X027161Y007365D01*
X026960Y007365D01*
X026774Y007288D01*
X026632Y007146D01*
X026555Y006960D01*
X026555Y006760D01*
X026632Y006574D01*
X026774Y006432D01*
X026960Y006355D01*
X027161Y006355D01*
X027346Y006432D01*
X027495Y006591D02*
X027657Y006591D01*
X027599Y006709D02*
X027544Y006709D01*
X027565Y006828D02*
X027575Y006828D01*
X027575Y006869D02*
X028051Y006869D01*
X028051Y006851D01*
X028069Y006851D01*
X028069Y006869D01*
X028051Y006869D01*
X028051Y007345D01*
X028022Y007345D01*
X027947Y007333D01*
X027874Y007309D01*
X027806Y007275D01*
X027744Y007230D01*
X027690Y007176D01*
X027646Y007114D01*
X027611Y007046D01*
X027587Y006974D01*
X027575Y006898D01*
X027575Y006869D01*
X027565Y006946D02*
X027583Y006946D01*
X028051Y006946D02*
X028069Y006946D01*
X028069Y006869D02*
X028069Y007345D01*
X028098Y007345D01*
X028174Y007333D01*
X028246Y007309D01*
X028315Y007275D01*
X028376Y007230D01*
X028430Y007176D01*
X028475Y007114D01*
X028510Y007046D01*
X028533Y006974D01*
X028545Y006898D01*
X028545Y006869D01*
X028069Y006869D01*
X028069Y006828D02*
X028051Y006828D01*
X028545Y006828D02*
X029980Y006828D01*
X029995Y006946D02*
X028538Y006946D01*
X028500Y007065D02*
X030045Y007065D01*
X030136Y007183D02*
X028423Y007183D01*
X028069Y007183D02*
X028051Y007183D01*
X028051Y007065D02*
X028069Y007065D01*
X027697Y007183D02*
X027451Y007183D01*
X027522Y007065D02*
X027620Y007065D01*
X027859Y007302D02*
X027314Y007302D01*
X026807Y007302D02*
X025812Y007302D01*
X025820Y007183D02*
X026669Y007183D01*
X026598Y007065D02*
X025820Y007065D01*
X025820Y006946D02*
X026555Y006946D01*
X026555Y006828D02*
X025820Y006828D01*
X025820Y006709D02*
X026576Y006709D01*
X026625Y006591D02*
X025820Y006591D01*
X025793Y006472D02*
X026734Y006472D01*
X025734Y006354D02*
X029686Y006354D01*
X029568Y006235D02*
X025609Y006235D01*
X025681Y006117D02*
X027399Y006117D01*
X027281Y005998D02*
X025790Y005998D01*
X025840Y005880D02*
X027162Y005880D01*
X027044Y005761D02*
X025860Y005761D01*
X025860Y005643D02*
X026925Y005643D01*
X026807Y005524D02*
X025860Y005524D01*
X025860Y005406D02*
X026688Y005406D01*
X026570Y005287D02*
X025860Y005287D01*
X025860Y005169D02*
X026451Y005169D01*
X026333Y005050D02*
X025860Y005050D01*
X025836Y004932D02*
X026214Y004932D01*
X026096Y004813D02*
X025787Y004813D01*
X025672Y004695D02*
X025977Y004695D01*
X026594Y004576D02*
X026859Y004576D01*
X026740Y004458D02*
X026476Y004458D01*
X026357Y004339D02*
X026622Y004339D01*
X026503Y004221D02*
X026239Y004221D01*
X026713Y004695D02*
X026920Y004695D01*
X026875Y004813D02*
X026831Y004813D01*
X029240Y004813D02*
X029280Y004813D01*
X029280Y004695D02*
X029240Y004695D01*
X029240Y004576D02*
X029280Y004576D01*
X029280Y004458D02*
X029240Y004458D01*
X029240Y004339D02*
X029280Y004339D01*
X029280Y004221D02*
X029240Y004221D01*
X029668Y004221D02*
X034980Y004221D01*
X034980Y004339D02*
X029700Y004339D01*
X032260Y003865D02*
X034980Y003865D01*
X034980Y003747D02*
X032265Y003747D01*
X032265Y003628D02*
X034980Y003628D01*
X034980Y003510D02*
X032265Y003510D01*
X032265Y003391D02*
X034980Y003391D01*
X034980Y003273D02*
X032265Y003273D01*
X032265Y003154D02*
X034980Y003154D01*
X034980Y003036D02*
X032240Y003036D01*
X031769Y002799D02*
X031751Y002799D01*
X031413Y002799D02*
X028194Y002799D01*
X028145Y002680D02*
X028955Y002680D01*
X028836Y002562D02*
X028046Y002562D01*
X028800Y002443D02*
X025860Y002443D01*
X025860Y002325D02*
X028800Y002325D01*
X028800Y002206D02*
X025860Y002206D01*
X025860Y002088D02*
X028857Y002088D01*
X029663Y002088D02*
X031448Y002088D01*
X031345Y002206D02*
X029720Y002206D01*
X029720Y002325D02*
X031294Y002325D01*
X031275Y002443D02*
X029720Y002443D01*
X029684Y002562D02*
X031285Y002562D01*
X031328Y002680D02*
X029566Y002680D01*
X029583Y003036D02*
X031280Y003036D01*
X031255Y003154D02*
X029700Y003154D01*
X029700Y003273D02*
X031255Y003273D01*
X031255Y003391D02*
X029700Y003391D01*
X029700Y003510D02*
X031255Y003510D01*
X031255Y003628D02*
X029590Y003628D01*
X029280Y003628D02*
X029240Y003628D01*
X029240Y003510D02*
X029280Y003510D01*
X029280Y003391D02*
X029240Y003391D01*
X029240Y003273D02*
X029280Y003273D01*
X029280Y003154D02*
X029240Y003154D01*
X029240Y003036D02*
X029280Y003036D01*
X031751Y002680D02*
X031769Y002680D01*
X031769Y002562D02*
X031751Y002562D01*
X031751Y002443D02*
X031769Y002443D01*
X031769Y002325D02*
X031751Y002325D01*
X031751Y002206D02*
X031769Y002206D01*
X031769Y002088D02*
X031751Y002088D01*
X032226Y002325D02*
X033525Y002325D01*
X027608Y000784D02*
X027534Y000784D01*
X027480Y000666D02*
X027675Y000666D01*
X027804Y000547D02*
X027361Y000547D01*
X016860Y002562D02*
X016840Y002562D01*
X016840Y002680D02*
X016860Y002680D01*
X016400Y002680D02*
X016320Y002680D01*
X016320Y002562D02*
X016400Y002562D01*
X015880Y002562D02*
X015860Y002562D01*
X015860Y002680D02*
X015880Y002680D01*
X015880Y002799D02*
X015860Y002799D01*
X015845Y002917D02*
X015900Y002917D01*
X016320Y002917D02*
X016400Y002917D01*
X016400Y002799D02*
X016320Y002799D01*
X016821Y002917D02*
X016876Y002917D01*
X016860Y002799D02*
X016840Y002799D01*
X016768Y003036D02*
X016925Y003036D01*
X017027Y003154D02*
X016662Y003154D01*
X016400Y003154D02*
X016320Y003154D01*
X016320Y003036D02*
X016400Y003036D01*
X016058Y003154D02*
X015693Y003154D01*
X015796Y003036D02*
X015953Y003036D01*
X017520Y003770D02*
X013360Y003770D01*
X013220Y003910D01*
X001760Y003910D01*
X001260Y003865D02*
X001260Y003865D01*
X001260Y003747D02*
X001260Y003747D01*
X001185Y003628D02*
X001335Y003628D01*
X001454Y003510D02*
X001067Y003510D01*
X000986Y003391D02*
X001347Y003391D01*
X001260Y003273D02*
X001105Y003273D01*
X001223Y003154D02*
X001260Y003154D01*
X001260Y003036D02*
X001260Y003036D01*
X001260Y002917D02*
X001260Y002917D01*
X001260Y002799D02*
X001260Y002799D01*
X001760Y002910D02*
X001760Y002930D01*
X001820Y002930D01*
X001260Y002680D02*
X001237Y002680D01*
X001260Y002562D02*
X001119Y002562D01*
X001000Y002443D02*
X001333Y002443D01*
X000416Y003273D02*
X000340Y003273D01*
X000340Y003391D02*
X000534Y003391D01*
X000454Y003510D02*
X000340Y003510D01*
X001260Y003984D02*
X001260Y003984D01*
X001260Y004102D02*
X001260Y004102D01*
X001157Y004221D02*
X001364Y004221D01*
X001482Y004339D02*
X001038Y004339D01*
X000482Y004339D02*
X000340Y004339D01*
X000340Y004221D02*
X000364Y004221D01*
X000340Y004458D02*
X000534Y004458D01*
X000415Y004576D02*
X000340Y004576D01*
X000720Y004576D02*
X000800Y004576D01*
X000800Y004458D02*
X000720Y004458D01*
X000987Y004458D02*
X001506Y004458D01*
X001387Y004576D02*
X001105Y004576D01*
X001224Y004695D02*
X001269Y004695D01*
X001260Y004813D02*
X001240Y004813D01*
X000800Y004813D02*
X000720Y004813D01*
X000720Y004695D02*
X000800Y004695D01*
X000800Y004932D02*
X001260Y004932D01*
X001240Y004950D02*
X001240Y005109D01*
X000959Y005390D01*
X000800Y005390D01*
X000800Y004950D01*
X001240Y004950D01*
X001240Y005050D02*
X001260Y005050D01*
X000800Y005050D02*
X000720Y005050D01*
X000720Y005169D02*
X000800Y005169D01*
X000800Y005287D02*
X000720Y005287D01*
X000459Y005287D02*
X000340Y005287D01*
X000340Y005406D02*
X001549Y005406D01*
X001972Y005406D02*
X004370Y005406D01*
X004450Y005406D02*
X005000Y005406D01*
X004890Y005287D02*
X005118Y005287D01*
X005237Y005169D02*
X004848Y005169D01*
X004450Y005169D02*
X004370Y005169D01*
X004370Y005287D02*
X004450Y005287D01*
X003973Y005169D02*
X002209Y005169D01*
X002090Y005287D02*
X003930Y005287D01*
X003930Y005524D02*
X003170Y005524D01*
X002601Y005524D02*
X000340Y005524D01*
X000340Y005643D02*
X002482Y005643D01*
X002425Y005761D02*
X000340Y005761D01*
X000340Y005880D02*
X002425Y005880D01*
X002425Y005998D02*
X000340Y005998D01*
X000340Y006117D02*
X002058Y006117D01*
X001952Y006235D02*
X000340Y006235D01*
X000340Y006354D02*
X001900Y006354D01*
X001880Y006472D02*
X000340Y006472D01*
X000340Y006591D02*
X001880Y006591D01*
X001880Y006709D02*
X000340Y006709D01*
X000340Y006828D02*
X002320Y006828D01*
X002400Y006828D02*
X002860Y006828D01*
X002840Y006850D02*
X002400Y006850D01*
X002400Y006770D01*
X002840Y006770D01*
X002840Y006452D01*
X002828Y006378D01*
X002820Y006350D01*
X002877Y006350D01*
X002860Y006391D01*
X002860Y007229D01*
X002933Y007405D01*
X002754Y007405D01*
X002771Y007382D01*
X002805Y007314D01*
X002828Y007242D01*
X002840Y007168D01*
X002840Y006850D01*
X002840Y006946D02*
X002860Y006946D01*
X002860Y007065D02*
X002840Y007065D01*
X002838Y007183D02*
X002860Y007183D01*
X002890Y007302D02*
X002809Y007302D01*
X001911Y007302D02*
X000340Y007302D01*
X000340Y007183D02*
X001883Y007183D01*
X001880Y007065D02*
X000340Y007065D01*
X000340Y006946D02*
X001880Y006946D01*
X002320Y006709D02*
X002400Y006709D01*
X002400Y006591D02*
X002320Y006591D01*
X002320Y006472D02*
X002400Y006472D01*
X002400Y006354D02*
X002320Y006354D01*
X002821Y006354D02*
X002876Y006354D01*
X002860Y006472D02*
X002840Y006472D01*
X002840Y006591D02*
X002860Y006591D01*
X002860Y006709D02*
X002840Y006709D01*
X002400Y006235D02*
X002320Y006235D01*
X002320Y006117D02*
X002400Y006117D01*
X003345Y005880D02*
X003610Y005880D01*
X003610Y005998D02*
X003479Y005998D01*
X003345Y005761D02*
X003724Y005761D01*
X003964Y005643D02*
X003288Y005643D01*
X001430Y005287D02*
X001062Y005287D01*
X001181Y005169D02*
X001312Y005169D01*
X002260Y005050D02*
X003629Y005050D01*
X003479Y004932D02*
X002260Y004932D01*
X002260Y004813D02*
X003420Y004813D01*
X003402Y004695D02*
X002899Y004695D01*
X002342Y004695D02*
X002252Y004695D01*
X002258Y004576D02*
X002133Y004576D01*
X002222Y004458D02*
X002015Y004458D01*
X002038Y004339D02*
X002222Y004339D01*
X002268Y004221D02*
X002157Y004221D01*
X002620Y004410D02*
X003520Y004410D01*
X003800Y004690D01*
X004198Y004695D02*
X005630Y004695D01*
X005592Y004813D02*
X004180Y004813D01*
X004210Y004932D02*
X004122Y004932D01*
X004091Y005050D02*
X003971Y005050D01*
X004370Y005050D02*
X004450Y005050D01*
X004450Y004932D02*
X004370Y004932D01*
X004611Y004932D02*
X005474Y004932D01*
X005355Y005050D02*
X004729Y005050D01*
X004184Y004576D02*
X005630Y004576D01*
X005688Y004458D02*
X004131Y004458D01*
X014775Y006430D02*
X014820Y006538D01*
X014820Y007281D01*
X014769Y007405D01*
X014976Y007405D01*
X014953Y007359D01*
X014931Y007293D01*
X014920Y007225D01*
X014920Y006930D01*
X015340Y006930D01*
X015340Y006890D01*
X014920Y006890D01*
X014920Y006595D01*
X014931Y006527D01*
X014953Y006461D01*
X014968Y006430D01*
X014775Y006430D01*
X014793Y006472D02*
X014949Y006472D01*
X014921Y006591D02*
X014820Y006591D01*
X014820Y006709D02*
X014920Y006709D01*
X014920Y006828D02*
X014820Y006828D01*
X014820Y006946D02*
X014920Y006946D01*
X015380Y006930D02*
X015380Y006890D01*
X015800Y006890D01*
X015800Y006595D01*
X015789Y006527D01*
X015768Y006461D01*
X015752Y006430D01*
X015945Y006430D01*
X015900Y006538D01*
X015900Y007281D01*
X015951Y007405D01*
X015745Y007405D01*
X015768Y007359D01*
X015789Y007293D01*
X015800Y007225D01*
X015800Y006930D01*
X015380Y006930D01*
X015800Y006946D02*
X015900Y006946D01*
X015900Y006828D02*
X015800Y006828D01*
X015800Y006709D02*
X015900Y006709D01*
X015900Y006591D02*
X015800Y006591D01*
X015772Y006472D02*
X015928Y006472D01*
X015900Y007065D02*
X015800Y007065D01*
X015800Y007183D02*
X015900Y007183D01*
X015909Y007302D02*
X015787Y007302D01*
X014934Y007302D02*
X014812Y007302D01*
X014820Y007183D02*
X014920Y007183D01*
X014920Y007065D02*
X014820Y007065D01*
X019860Y005761D02*
X019860Y005761D01*
X019860Y005643D02*
X019860Y005643D01*
X020784Y006013D02*
X020860Y005829D01*
X020860Y004991D01*
X020860Y005829D01*
X020936Y006013D01*
X021077Y006154D01*
X021192Y006202D01*
X021100Y006240D01*
X020970Y006369D01*
X020900Y006538D01*
X020900Y007281D01*
X020951Y007405D01*
X020769Y007405D01*
X020820Y007281D01*
X020820Y006538D01*
X020750Y006369D01*
X020621Y006240D01*
X020528Y006202D01*
X020644Y006154D01*
X020784Y006013D01*
X020790Y005998D02*
X020930Y005998D01*
X020881Y005880D02*
X020840Y005880D01*
X020860Y005761D02*
X020860Y005761D01*
X020860Y005643D02*
X020860Y005643D01*
X020860Y005524D02*
X020860Y005524D01*
X020860Y005406D02*
X020860Y005406D01*
X020860Y005287D02*
X020860Y005287D01*
X020860Y005169D02*
X020860Y005169D01*
X020860Y005050D02*
X020860Y005050D01*
X020836Y004932D02*
X020885Y004932D01*
X020934Y004813D02*
X020787Y004813D01*
X020672Y004695D02*
X021049Y004695D01*
X021672Y004695D02*
X022049Y004695D01*
X021934Y004813D02*
X021787Y004813D01*
X021836Y004932D02*
X021885Y004932D01*
X021860Y004991D02*
X021860Y005829D01*
X021936Y006013D01*
X022077Y006154D01*
X022192Y006202D01*
X022100Y006240D01*
X021970Y006369D01*
X021900Y006538D01*
X021900Y007281D01*
X021951Y007405D01*
X021769Y007405D01*
X021820Y007281D01*
X021820Y006538D01*
X021750Y006369D01*
X021621Y006240D01*
X021528Y006202D01*
X021644Y006154D01*
X021784Y006013D01*
X021860Y005829D01*
X021860Y004991D01*
X021860Y005050D02*
X021860Y005050D01*
X021860Y005169D02*
X021860Y005169D01*
X021860Y005287D02*
X021860Y005287D01*
X021860Y005406D02*
X021860Y005406D01*
X021860Y005524D02*
X021860Y005524D01*
X021860Y005643D02*
X021860Y005643D01*
X021860Y005761D02*
X021860Y005761D01*
X021840Y005880D02*
X021881Y005880D01*
X021930Y005998D02*
X021790Y005998D01*
X021681Y006117D02*
X022040Y006117D01*
X022112Y006235D02*
X021609Y006235D01*
X021734Y006354D02*
X021986Y006354D01*
X021928Y006472D02*
X021793Y006472D01*
X021820Y006591D02*
X021900Y006591D01*
X021900Y006709D02*
X021820Y006709D01*
X021820Y006828D02*
X021900Y006828D01*
X021900Y006946D02*
X021820Y006946D01*
X021820Y007065D02*
X021900Y007065D01*
X021900Y007183D02*
X021820Y007183D01*
X021812Y007302D02*
X021909Y007302D01*
X022769Y007405D02*
X022820Y007281D01*
X022820Y006538D01*
X022750Y006369D01*
X022621Y006240D01*
X022528Y006202D01*
X022644Y006154D01*
X022784Y006013D01*
X022860Y005829D01*
X022860Y004991D01*
X022860Y005829D01*
X022936Y006013D01*
X023077Y006154D01*
X023192Y006202D01*
X023100Y006240D01*
X022970Y006369D01*
X022900Y006538D01*
X022900Y007281D01*
X022951Y007405D01*
X022769Y007405D01*
X022812Y007302D02*
X022909Y007302D01*
X022900Y007183D02*
X022820Y007183D01*
X022820Y007065D02*
X022900Y007065D01*
X022900Y006946D02*
X022820Y006946D01*
X022820Y006828D02*
X022900Y006828D01*
X022900Y006709D02*
X022820Y006709D01*
X022820Y006591D02*
X022900Y006591D01*
X022928Y006472D02*
X022793Y006472D01*
X022734Y006354D02*
X022986Y006354D01*
X023112Y006235D02*
X022609Y006235D01*
X022681Y006117D02*
X023040Y006117D01*
X023528Y006202D02*
X023621Y006240D01*
X023750Y006369D01*
X023820Y006538D01*
X023820Y007281D01*
X023769Y007405D01*
X023951Y007405D01*
X023900Y007281D01*
X023900Y006538D01*
X023970Y006369D01*
X024100Y006240D01*
X024192Y006202D01*
X024077Y006154D01*
X023936Y006013D01*
X023860Y005829D01*
X023860Y004991D01*
X023860Y005829D01*
X023784Y006013D01*
X023644Y006154D01*
X023528Y006202D01*
X023609Y006235D02*
X024112Y006235D01*
X024040Y006117D02*
X023681Y006117D01*
X023790Y005998D02*
X023930Y005998D01*
X023881Y005880D02*
X023840Y005880D01*
X023860Y005761D02*
X023860Y005761D01*
X023860Y005643D02*
X023860Y005643D01*
X023860Y005524D02*
X023860Y005524D01*
X023860Y005406D02*
X023860Y005406D01*
X023860Y005287D02*
X023860Y005287D01*
X023860Y005169D02*
X023860Y005169D01*
X023860Y005050D02*
X023860Y005050D01*
X023836Y004932D02*
X023885Y004932D01*
X023934Y004813D02*
X023787Y004813D01*
X023672Y004695D02*
X024049Y004695D01*
X023049Y004695D02*
X022672Y004695D01*
X022787Y004813D02*
X022934Y004813D01*
X022885Y004932D02*
X022836Y004932D01*
X022860Y005050D02*
X022860Y005050D01*
X022860Y005169D02*
X022860Y005169D01*
X022860Y005287D02*
X022860Y005287D01*
X022860Y005406D02*
X022860Y005406D01*
X022860Y005524D02*
X022860Y005524D01*
X022860Y005643D02*
X022860Y005643D01*
X022860Y005761D02*
X022860Y005761D01*
X022840Y005880D02*
X022881Y005880D01*
X022930Y005998D02*
X022790Y005998D01*
X023734Y006354D02*
X023986Y006354D01*
X023928Y006472D02*
X023793Y006472D01*
X023820Y006591D02*
X023900Y006591D01*
X023900Y006709D02*
X023820Y006709D01*
X023820Y006828D02*
X023900Y006828D01*
X023900Y006946D02*
X023820Y006946D01*
X023820Y007065D02*
X023900Y007065D01*
X023900Y007183D02*
X023820Y007183D01*
X023812Y007302D02*
X023909Y007302D01*
X020909Y007302D02*
X020812Y007302D01*
X020820Y007183D02*
X020900Y007183D01*
X020900Y007065D02*
X020820Y007065D01*
X020820Y006946D02*
X020900Y006946D01*
X020900Y006828D02*
X020820Y006828D01*
X020820Y006709D02*
X020900Y006709D01*
X020900Y006591D02*
X020820Y006591D01*
X020793Y006472D02*
X020928Y006472D01*
X020986Y006354D02*
X020734Y006354D01*
X020609Y006235D02*
X021112Y006235D01*
X021040Y006117D02*
X020681Y006117D01*
X028051Y006591D02*
X028069Y006591D01*
X028069Y006709D02*
X028051Y006709D01*
X030530Y006800D02*
X033090Y006800D01*
X033599Y006591D02*
X034980Y006591D01*
X034980Y006709D02*
X033640Y006709D01*
X033640Y006828D02*
X034980Y006828D01*
X034980Y006946D02*
X033625Y006946D01*
X033576Y007065D02*
X034980Y007065D01*
X034980Y007183D02*
X033485Y007183D01*
X033317Y007302D02*
X034980Y007302D01*
X032864Y007302D02*
X030757Y007302D01*
X030925Y007183D02*
X032696Y007183D01*
X032605Y007065D02*
X031016Y007065D01*
X030304Y007302D02*
X028262Y007302D01*
X028069Y007302D02*
X028051Y007302D01*
X033422Y006354D02*
X034980Y006354D01*
X034980Y006472D02*
X033540Y006472D01*
X033254Y005524D02*
X034980Y005524D01*
X034980Y005406D02*
X033454Y005406D01*
X033130Y005406D02*
X033050Y005406D01*
X033050Y005524D02*
X033130Y005524D01*
X032926Y005524D02*
X030694Y005524D01*
X030570Y005524D02*
X030490Y005524D01*
X030490Y005406D02*
X030570Y005406D01*
X030366Y005524D02*
X029720Y005524D01*
X029720Y005406D02*
X030166Y005406D01*
X030072Y005287D02*
X029720Y005287D01*
X029644Y005169D02*
X030021Y005169D01*
X030490Y005169D02*
X030570Y005169D01*
X030570Y005287D02*
X030490Y005287D01*
X030989Y005287D02*
X032632Y005287D01*
X032581Y005169D02*
X031039Y005169D01*
X030894Y005406D02*
X032726Y005406D01*
X033050Y005287D02*
X033130Y005287D01*
X033130Y005169D02*
X033050Y005169D01*
X033549Y005287D02*
X034980Y005287D01*
X034980Y005169D02*
X033599Y005169D01*
X030570Y004932D02*
X030490Y004932D01*
X007900Y000784D02*
X007820Y000784D01*
X007820Y000666D02*
X007900Y000666D01*
X007900Y000547D02*
X007820Y000547D01*
X002400Y001140D02*
X002320Y001140D01*
X002320Y001258D02*
X002400Y001258D01*
X001880Y001258D02*
X000340Y001258D01*
X000340Y001140D02*
X001880Y001140D01*
D20*
X013720Y004130D02*
X013760Y004090D01*
X016960Y004090D01*
X017400Y004470D01*
X017400Y005370D01*
X017360Y005410D01*
X013720Y004130D02*
X013620Y004130D01*
X015360Y002460D02*
X015360Y001660D01*
X026210Y001660D01*
X026910Y000960D01*
X027060Y000960D01*
X026460Y002960D02*
X026460Y003810D01*
X027535Y004885D01*
X027560Y005910D02*
X026060Y004410D01*
X024910Y004410D01*
X027560Y005910D02*
X029610Y005910D01*
X030500Y006800D01*
X030530Y006800D01*
D21*
X024910Y004410D03*
X026460Y002960D03*
X013620Y004130D03*
X012860Y004550D03*
X003800Y004690D03*
X002620Y004410D03*
D22*
X004760Y005970D02*
X005860Y004870D01*
X005860Y004610D01*
X005880Y004590D01*
X011900Y004590D01*
X012360Y005050D01*
X012360Y005410D01*
X011360Y006210D02*
X011360Y006910D01*
X011360Y006210D02*
X004960Y006210D01*
X004360Y006810D01*
X003840Y006330D02*
X003360Y006810D01*
X003840Y006330D02*
X003840Y005970D01*
X004760Y005970D01*
M02*
