G75*
G70*
%OFA0B0*%
%FSLAX24Y24*%
%IPPOS*%
%LPD*%
%AMOC8*
5,1,8,0,0,1.08239X$1,22.5*
%
%ADD10C,0.0640*%
%ADD11OC8,0.0640*%
%ADD12C,0.0820*%
%ADD13C,0.0730*%
%ADD14C,0.0720*%
%ADD15R,0.0720X0.0720*%
%ADD16OC8,0.0720*%
%ADD17R,0.0730X0.0730*%
%ADD18C,0.0560*%
D10*
X006360Y000630D02*
X006360Y001190D01*
X007360Y001190D02*
X007360Y000630D01*
X008360Y000630D02*
X008360Y001190D01*
X009360Y001190D02*
X009360Y000630D01*
X010360Y000630D02*
X010360Y001190D01*
X011360Y001190D02*
X011360Y000630D01*
X012360Y000630D02*
X012360Y001190D01*
X013360Y001190D02*
X013360Y000630D01*
X014360Y000630D02*
X014360Y001190D01*
X015360Y001190D02*
X015360Y000630D01*
X016360Y000630D02*
X016360Y001190D01*
X017360Y001190D02*
X017360Y000630D01*
X018360Y000630D02*
X018360Y001190D01*
X019360Y001190D02*
X019360Y000630D01*
X020360Y000630D02*
X020360Y001190D01*
X021360Y001190D02*
X021360Y000630D01*
X022360Y000630D02*
X022360Y001190D01*
X023360Y001190D02*
X023360Y000630D01*
X024360Y000630D02*
X024360Y001190D01*
X025360Y001190D02*
X025360Y000630D01*
X025360Y006630D02*
X025360Y007190D01*
X024360Y007190D02*
X024360Y006630D01*
X023360Y006630D02*
X023360Y007190D01*
X022360Y007190D02*
X022360Y006630D01*
X021360Y006630D02*
X021360Y007190D01*
X020360Y007190D02*
X020360Y006630D01*
X019360Y006630D02*
X019360Y007190D01*
X018360Y007190D02*
X018360Y006630D01*
X017360Y006630D02*
X017360Y007190D01*
X016360Y007190D02*
X016360Y006630D01*
X015360Y006630D02*
X015360Y007190D01*
X014360Y007190D02*
X014360Y006630D01*
X013360Y006630D02*
X013360Y007190D01*
X012360Y007190D02*
X012360Y006630D01*
X011360Y006630D02*
X011360Y007190D01*
X010360Y007190D02*
X010360Y006630D01*
X009360Y006630D02*
X009360Y007190D01*
X008360Y007190D02*
X008360Y006630D01*
X007360Y006630D02*
X007360Y007190D01*
X006360Y007190D02*
X006360Y006630D01*
D11*
X002885Y005890D03*
X002885Y001890D03*
X029260Y002335D03*
X029260Y003335D03*
X029260Y004435D03*
X029260Y005435D03*
D12*
X030530Y005020D03*
X033090Y005020D03*
X033090Y006800D03*
X030530Y006800D03*
X033910Y001960D03*
X033910Y000960D03*
X032160Y000960D03*
X029160Y000960D03*
D13*
X028060Y000960D03*
X027060Y000960D03*
X031760Y002460D03*
X028060Y006860D03*
X027060Y006860D03*
D14*
X002360Y001330D02*
X002360Y000690D01*
X003360Y000690D02*
X003360Y001330D01*
X004360Y001330D02*
X004360Y000690D01*
X006360Y002140D02*
X006360Y002780D01*
X007360Y002780D02*
X007360Y002140D01*
X008360Y002140D02*
X008360Y002780D01*
X009360Y002780D02*
X009360Y002140D01*
X010360Y002140D02*
X010360Y002780D01*
X011360Y002780D02*
X011360Y002140D01*
X012360Y002140D02*
X012360Y002780D01*
X013360Y002780D02*
X013360Y002140D01*
X014360Y002140D02*
X014360Y002780D01*
X015360Y002780D02*
X015360Y002140D01*
X016360Y002140D02*
X016360Y002780D01*
X017360Y002780D02*
X017360Y002140D01*
X018360Y002140D02*
X018360Y002780D01*
X019360Y002780D02*
X019360Y002140D01*
X020360Y002140D02*
X020360Y002780D01*
X021360Y002780D02*
X021360Y002140D01*
X022360Y002140D02*
X022360Y002780D01*
X023360Y002780D02*
X023360Y002140D01*
X024360Y002140D02*
X024360Y002780D01*
X025360Y002780D02*
X025360Y002140D01*
X025360Y005090D02*
X025360Y005730D01*
X024360Y005730D02*
X024360Y005090D01*
X023360Y005090D02*
X023360Y005730D01*
X022360Y005730D02*
X022360Y005090D01*
X021360Y005090D02*
X021360Y005730D01*
X020360Y005730D02*
X020360Y005090D01*
X019360Y005090D02*
X019360Y005730D01*
X018360Y005730D02*
X018360Y005090D01*
X017360Y005090D02*
X017360Y005730D01*
X016360Y005730D02*
X016360Y005090D01*
X015360Y005090D02*
X015360Y005730D01*
X014360Y005730D02*
X014360Y005090D01*
X013360Y005090D02*
X013360Y005730D01*
X012360Y005730D02*
X012360Y005090D01*
X011360Y005090D02*
X011360Y005730D01*
X010360Y005730D02*
X010360Y005090D01*
X009360Y005090D02*
X009360Y005730D01*
X008360Y005730D02*
X008360Y005090D01*
X007360Y005090D02*
X007360Y005730D01*
X006360Y005730D02*
X006360Y005090D01*
X004360Y006490D02*
X004360Y007130D01*
X003360Y007130D02*
X003360Y006490D01*
X002360Y006490D02*
X002360Y007130D01*
D15*
X001760Y002910D03*
D16*
X000760Y002910D03*
X004360Y002360D03*
X001760Y003910D03*
X000760Y003910D03*
X000760Y004910D03*
X001760Y004910D03*
X004410Y005410D03*
D17*
X031760Y003460D03*
D18*
X027775Y002885D02*
X027295Y002885D01*
X027295Y004885D02*
X027775Y004885D01*
M02*
