G75*
G70*
%OFA0B0*%
%FSLAX24Y24*%
%IPPOS*%
%LPD*%
%AMOC8*
5,1,8,0,0,1.08239X$1,22.5*
%
%ADD10C,0.0000*%
%ADD11R,0.0600X0.0040*%
%ADD12R,0.0720X0.0040*%
%ADD13R,0.0680X0.0040*%
%ADD14R,0.0640X0.0040*%
%ADD15R,0.0560X0.0040*%
%ADD16R,0.0520X0.0040*%
%ADD17R,0.0440X0.0040*%
%ADD18R,0.0160X0.0040*%
%ADD19R,0.0880X0.0040*%
%ADD20R,0.1320X0.0040*%
%ADD21R,0.1520X0.0040*%
%ADD22R,0.0120X0.0040*%
%ADD23R,0.1400X0.0040*%
%ADD24R,0.1440X0.0040*%
%ADD25R,0.1480X0.0040*%
%ADD26R,0.1360X0.0040*%
%ADD27R,0.1240X0.0040*%
%ADD28R,0.1160X0.0040*%
%ADD29R,0.1080X0.0040*%
%ADD30R,0.1000X0.0040*%
%ADD31R,0.0920X0.0040*%
%ADD32R,0.0200X0.0040*%
%ADD33R,0.0760X0.0040*%
%ADD34R,0.0480X0.0040*%
%ADD35C,0.0560*%
%ADD36OC8,0.0560*%
%ADD37C,0.0740*%
%ADD38C,0.0650*%
%ADD39C,0.0640*%
%ADD40R,0.0640X0.0640*%
%ADD41OC8,0.0640*%
%ADD42R,0.0650X0.0650*%
%ADD43C,0.0480*%
%ADD44C,0.0240*%
%ADD45C,0.0320*%
%ADD46C,0.0160*%
%ADD47C,0.0436*%
%ADD48C,0.0120*%
D10*
X000160Y000310D02*
X035160Y000310D01*
X035160Y007585D01*
X000160Y007585D01*
X000160Y000310D01*
D11*
X001080Y000390D03*
X001160Y000630D03*
X001200Y000710D03*
X001200Y000750D03*
X001200Y000790D03*
X001200Y000830D03*
D12*
X001100Y000430D03*
X001220Y002190D03*
D13*
X001360Y002150D03*
X001120Y000510D03*
X001120Y000470D03*
D14*
X001140Y000550D03*
X001140Y000590D03*
X001180Y000670D03*
D15*
X001220Y000870D03*
D16*
X001200Y000910D03*
X001200Y000950D03*
X001200Y000990D03*
X001200Y001030D03*
X001200Y001070D03*
X001200Y001110D03*
D17*
X001200Y001150D03*
D18*
X001340Y001190D03*
X000300Y001470D03*
X000300Y001590D03*
X000300Y001630D03*
X000340Y001710D03*
X000380Y001750D03*
X000420Y001830D03*
X000460Y001870D03*
X000500Y001910D03*
X000540Y001950D03*
X000580Y001990D03*
X000620Y002030D03*
X000700Y002070D03*
D19*
X000780Y001350D03*
D20*
X000920Y001390D03*
X001200Y001470D03*
X001360Y001870D03*
D21*
X000980Y001430D03*
D22*
X000280Y001510D03*
X000280Y001550D03*
X000320Y001670D03*
X000400Y001790D03*
D23*
X001360Y001790D03*
X001240Y001510D03*
D24*
X001260Y001550D03*
X001300Y001590D03*
X001340Y001710D03*
X001340Y001750D03*
D25*
X001320Y001670D03*
X001320Y001630D03*
D26*
X001340Y001830D03*
D27*
X001360Y001910D03*
D28*
X001360Y001950D03*
D29*
X001360Y001990D03*
D30*
X001360Y002030D03*
D31*
X001360Y002070D03*
D32*
X000840Y002150D03*
X000760Y002110D03*
D33*
X001360Y002110D03*
D34*
X001220Y002230D03*
D35*
X006360Y001190D02*
X006360Y000630D01*
X007360Y000630D02*
X007360Y001190D01*
X008360Y001190D02*
X008360Y000630D01*
X009360Y000630D02*
X009360Y001190D01*
X010360Y001190D02*
X010360Y000630D01*
X011360Y000630D02*
X011360Y001190D01*
X012360Y001190D02*
X012360Y000630D01*
X013360Y000630D02*
X013360Y001190D01*
X014360Y001190D02*
X014360Y000630D01*
X015360Y000630D02*
X015360Y001190D01*
X016360Y001190D02*
X016360Y000630D01*
X017360Y000630D02*
X017360Y001190D01*
X018360Y001190D02*
X018360Y000630D01*
X019360Y000630D02*
X019360Y001190D01*
X020360Y001190D02*
X020360Y000630D01*
X021360Y000630D02*
X021360Y001190D01*
X022360Y001190D02*
X022360Y000630D01*
X023360Y000630D02*
X023360Y001190D01*
X024360Y001190D02*
X024360Y000630D01*
X025360Y000630D02*
X025360Y001190D01*
X025360Y006630D02*
X025360Y007190D01*
X024360Y007190D02*
X024360Y006630D01*
X023360Y006630D02*
X023360Y007190D01*
X022360Y007190D02*
X022360Y006630D01*
X021360Y006630D02*
X021360Y007190D01*
X020360Y007190D02*
X020360Y006630D01*
X019360Y006630D02*
X019360Y007190D01*
X018360Y007190D02*
X018360Y006630D01*
X017360Y006630D02*
X017360Y007190D01*
X016360Y007190D02*
X016360Y006630D01*
X015360Y006630D02*
X015360Y007190D01*
X014360Y007190D02*
X014360Y006630D01*
X013360Y006630D02*
X013360Y007190D01*
X012360Y007190D02*
X012360Y006630D01*
X011360Y006630D02*
X011360Y007190D01*
X010360Y007190D02*
X010360Y006630D01*
X009360Y006630D02*
X009360Y007190D01*
X008360Y007190D02*
X008360Y006630D01*
X007360Y006630D02*
X007360Y007190D01*
X006360Y007190D02*
X006360Y006630D01*
D36*
X002885Y005890D03*
X002885Y001890D03*
X029260Y002335D03*
X029260Y003335D03*
X029260Y004435D03*
X029260Y005435D03*
D37*
X030530Y005020D03*
X033090Y005020D03*
X033090Y006800D03*
X030530Y006800D03*
X033910Y001960D03*
X033910Y000960D03*
X032160Y000960D03*
X029160Y000960D03*
D38*
X028060Y000960D03*
X027060Y000960D03*
X031760Y002460D03*
X028060Y006860D03*
X027060Y006860D03*
D39*
X025360Y005730D02*
X025360Y005090D01*
X024360Y005090D02*
X024360Y005730D01*
X023360Y005730D02*
X023360Y005090D01*
X022360Y005090D02*
X022360Y005730D01*
X021360Y005730D02*
X021360Y005090D01*
X020360Y005090D02*
X020360Y005730D01*
X019360Y005730D02*
X019360Y005090D01*
X018360Y005090D02*
X018360Y005730D01*
X017360Y005730D02*
X017360Y005090D01*
X016360Y005090D02*
X016360Y005730D01*
X015360Y005730D02*
X015360Y005090D01*
X014360Y005090D02*
X014360Y005730D01*
X013360Y005730D02*
X013360Y005090D01*
X012360Y005090D02*
X012360Y005730D01*
X011360Y005730D02*
X011360Y005090D01*
X010360Y005090D02*
X010360Y005730D01*
X009360Y005730D02*
X009360Y005090D01*
X008360Y005090D02*
X008360Y005730D01*
X007360Y005730D02*
X007360Y005090D01*
X006360Y005090D02*
X006360Y005730D01*
X004360Y006490D02*
X004360Y007130D01*
X003360Y007130D02*
X003360Y006490D01*
X002360Y006490D02*
X002360Y007130D01*
X006360Y002780D02*
X006360Y002140D01*
X007360Y002140D02*
X007360Y002780D01*
X008360Y002780D02*
X008360Y002140D01*
X009360Y002140D02*
X009360Y002780D01*
X010360Y002780D02*
X010360Y002140D01*
X011360Y002140D02*
X011360Y002780D01*
X012360Y002780D02*
X012360Y002140D01*
X013360Y002140D02*
X013360Y002780D01*
X014360Y002780D02*
X014360Y002140D01*
X015360Y002140D02*
X015360Y002780D01*
X016360Y002780D02*
X016360Y002140D01*
X017360Y002140D02*
X017360Y002780D01*
X018360Y002780D02*
X018360Y002140D01*
X019360Y002140D02*
X019360Y002780D01*
X020360Y002780D02*
X020360Y002140D01*
X021360Y002140D02*
X021360Y002780D01*
X022360Y002780D02*
X022360Y002140D01*
X023360Y002140D02*
X023360Y002780D01*
X024360Y002780D02*
X024360Y002140D01*
X025360Y002140D02*
X025360Y002780D01*
X004360Y001330D02*
X004360Y000690D01*
X003360Y000690D02*
X003360Y001330D01*
X002360Y001330D02*
X002360Y000690D01*
D40*
X001760Y002910D03*
D41*
X000760Y002910D03*
X004360Y002360D03*
X001760Y003910D03*
X000760Y003910D03*
X000760Y004910D03*
X001760Y004910D03*
X004410Y005410D03*
D42*
X031760Y003460D03*
D43*
X027775Y002885D02*
X027295Y002885D01*
X027295Y004885D02*
X027775Y004885D01*
D44*
X025360Y005410D02*
X025360Y006910D01*
X024360Y006910D02*
X024360Y005410D01*
X023360Y005410D02*
X023360Y006910D01*
X022360Y006910D02*
X022360Y005410D01*
X021360Y005410D02*
X021360Y006910D01*
X020360Y006910D02*
X020360Y005410D01*
X019360Y005410D02*
X019360Y006910D01*
X018360Y006910D02*
X018360Y005410D01*
X017360Y005410D02*
X017360Y006910D01*
X016360Y006910D02*
X016360Y005410D01*
X016360Y004410D01*
X016860Y003910D01*
X025410Y003910D01*
X029760Y003910D01*
X025360Y002460D02*
X025360Y000910D01*
X024360Y000910D02*
X024360Y002460D01*
X023360Y002460D02*
X023360Y000910D01*
X022360Y000910D02*
X022360Y002460D01*
X021360Y002460D02*
X021360Y000910D01*
X020360Y000910D02*
X020360Y002460D01*
X019360Y002460D02*
X019360Y000910D01*
X018360Y000910D02*
X018360Y002460D01*
X017360Y002460D02*
X017360Y000910D01*
X016360Y000910D02*
X016360Y002460D01*
X015360Y002460D02*
X015360Y000910D01*
X014360Y000910D02*
X014360Y002460D01*
X013360Y002460D02*
X013360Y000910D01*
X012360Y000910D02*
X012360Y002460D01*
X011360Y002460D02*
X011360Y000910D01*
X010360Y000910D02*
X010360Y002460D01*
X009360Y002460D02*
X009360Y000910D01*
X008360Y000910D02*
X008360Y002460D01*
X007360Y002460D02*
X007360Y000910D01*
X006360Y000910D02*
X006360Y002460D01*
X016360Y005010D02*
X016360Y005410D01*
X015360Y005410D02*
X015360Y006910D01*
X014360Y006910D02*
X014360Y005410D01*
X013360Y005410D02*
X013360Y006910D01*
X012360Y006910D02*
X012360Y005410D01*
X011360Y005410D02*
X011360Y006910D01*
X010360Y006910D02*
X010360Y005410D01*
X009360Y005410D02*
X009360Y006910D01*
X008360Y006910D02*
X008360Y005410D01*
X007360Y005410D02*
X007360Y006910D01*
X006360Y006910D02*
X006360Y005410D01*
D45*
X029760Y003910D02*
X030210Y003460D01*
X031760Y003460D01*
D46*
X030210Y003460D02*
X030210Y002460D01*
X029160Y001410D01*
X029160Y000960D01*
X029160Y001410D02*
X029110Y001410D01*
X028960Y001560D01*
X027660Y001560D01*
X027060Y000960D01*
X032160Y000960D02*
X033910Y000960D01*
X029260Y002335D02*
X028085Y002335D01*
X027535Y002885D01*
X026860Y003560D01*
X015660Y003560D01*
X014360Y004860D01*
X014360Y005410D01*
X013360Y005410D02*
X013360Y004960D01*
X015010Y003310D01*
X026110Y003310D01*
X026460Y002960D01*
X025410Y003910D02*
X027060Y005560D01*
X027060Y006860D01*
X028085Y005435D02*
X027535Y004885D01*
X028085Y005435D02*
X029260Y005435D01*
X024910Y004410D02*
X017460Y004410D01*
X017360Y004510D01*
X017360Y005410D01*
X017310Y005360D01*
X013620Y004130D02*
X013360Y004130D01*
X013260Y004030D01*
X003860Y004030D01*
X002885Y005005D01*
X002885Y005890D01*
X002760Y005910D01*
X001760Y004910D01*
X004490Y002360D02*
X005740Y003610D01*
X014320Y003610D01*
X015220Y002710D01*
X015220Y002600D01*
X015360Y002460D01*
X004490Y002360D02*
X004360Y002360D01*
X004350Y002350D01*
X003780Y002350D01*
X003320Y001890D01*
X002885Y001890D01*
X002600Y001910D01*
X002160Y002350D01*
X001320Y002350D01*
X000760Y002910D01*
D47*
X002620Y004410D03*
X003800Y004690D03*
X012860Y004550D03*
X013620Y004130D03*
X024910Y004410D03*
X026460Y002960D03*
D48*
X012860Y004550D02*
X012680Y004350D01*
X004600Y004350D01*
X004260Y004690D01*
X003800Y004690D01*
X002620Y004410D02*
X001440Y004410D01*
X000940Y003910D01*
X000760Y003910D01*
X005660Y002990D02*
X006000Y003330D01*
X008200Y003330D01*
X008360Y003170D01*
X008360Y002460D01*
X005660Y002550D02*
X005660Y002990D01*
X005660Y002550D02*
X004940Y001830D01*
X003940Y001830D01*
X003360Y001250D01*
X003360Y001010D01*
M02*
